<svg width="353" height="113" viewBox="0 0 353 113" fill="none" xmlns="http://www.w3.org/2000/svg">
<path d="M34.68 51.08C34.3707 50.4293 33.9227 49.928 33.336 49.576C32.7493 49.2133 32.0667 49.032 31.288 49.032C30.5093 49.032 29.8053 49.2133 29.176 49.576C28.5573 49.928 28.0667 50.44 27.704 51.112C27.352 51.7733 27.176 52.5413 27.176 53.416C27.176 54.2907 27.352 55.0587 27.704 55.72C28.0667 56.3813 28.5573 56.8933 29.176 57.256C29.8053 57.608 30.5093 57.784 31.288 57.784C32.376 57.784 33.272 57.4587 33.976 56.808C34.68 56.1573 35.0907 55.2773 35.208 54.168H30.76V52.984H36.76V54.104C36.6747 55.0213 36.3867 55.864 35.896 56.632C35.4053 57.3893 34.76 57.992 33.96 58.44C33.16 58.8773 32.2693 59.096 31.288 59.096C30.2533 59.096 29.3093 58.856 28.456 58.376C27.6027 57.8853 26.9253 57.208 26.424 56.344C25.9333 55.48 25.688 54.504 25.688 53.416C25.688 52.328 25.9333 51.352 26.424 50.488C26.9253 49.6133 27.6027 48.936 28.456 48.456C29.3093 47.9653 30.2533 47.72 31.288 47.72C32.472 47.72 33.5173 48.0133 34.424 48.6C35.3413 49.1867 36.008 50.0133 36.424 51.08H34.68ZM46.6851 54.28C46.6851 54.5573 46.6691 54.8507 46.6371 55.16H39.6291C39.6825 56.024 39.9758 56.7013 40.5091 57.192C41.0531 57.672 41.7091 57.912 42.4771 57.912C43.1065 57.912 43.6291 57.768 44.0451 57.48C44.4718 57.1813 44.7705 56.7867 44.9411 56.296H46.5091C46.2745 57.1387 45.8051 57.8267 45.1011 58.36C44.3971 58.8827 43.5225 59.144 42.4771 59.144C41.6451 59.144 40.8985 58.9573 40.2371 58.584C39.5865 58.2107 39.0745 57.6827 38.7011 57C38.3278 56.3067 38.1411 55.5067 38.1411 54.6C38.1411 53.6933 38.3225 52.8987 38.6851 52.216C39.0478 51.5333 39.5545 51.0107 40.2051 50.648C40.8665 50.2747 41.6238 50.088 42.4771 50.088C43.3091 50.088 44.0451 50.2693 44.6851 50.632C45.3251 50.9947 45.8158 51.496 46.1571 52.136C46.5091 52.7653 46.6851 53.48 46.6851 54.28ZM45.1811 53.976C45.1811 53.4213 45.0585 52.9467 44.8131 52.552C44.5678 52.1467 44.2318 51.8427 43.8051 51.64C43.3891 51.4267 42.9251 51.32 42.4131 51.32C41.6771 51.32 41.0478 51.5547 40.5251 52.024C40.0131 52.4933 39.7198 53.144 39.6451 53.976H45.1811ZM50.383 51.432V56.6C50.383 57.0267 50.4737 57.3307 50.655 57.512C50.8363 57.6827 51.151 57.768 51.599 57.768H52.671V59H51.359C50.5483 59 49.9403 58.8133 49.535 58.44C49.1297 58.0667 48.927 57.4533 48.927 56.6V51.432H47.791V50.232H48.927V48.024H50.383V50.232H52.671V51.432H50.383ZM58.1568 54.584C58.1568 53.688 58.3381 52.904 58.7008 52.232C59.0634 51.5493 59.5594 51.0213 60.1888 50.648C60.8288 50.2747 61.5381 50.088 62.3168 50.088C63.0848 50.088 63.7514 50.2533 64.3168 50.584C64.8821 50.9147 65.3034 51.3307 65.5808 51.832V50.232H67.0528V59H65.5808V57.368C65.2928 57.88 64.8608 58.3067 64.2848 58.648C63.7194 58.9787 63.0581 59.144 62.3008 59.144C61.5221 59.144 60.8181 58.952 60.1888 58.568C59.5594 58.184 59.0634 57.6453 58.7008 56.952C58.3381 56.2587 58.1568 55.4693 58.1568 54.584ZM65.5808 54.6C65.5808 53.9387 65.4474 53.3627 65.1808 52.872C64.9141 52.3813 64.5514 52.008 64.0928 51.752C63.6448 51.4853 63.1488 51.352 62.6048 51.352C62.0608 51.352 61.5648 51.48 61.1168 51.736C60.6688 51.992 60.3114 52.3653 60.0448 52.856C59.7781 53.3467 59.6448 53.9227 59.6448 54.584C59.6448 55.256 59.7781 55.8427 60.0448 56.344C60.3114 56.8347 60.6688 57.2133 61.1168 57.48C61.5648 57.736 62.0608 57.864 62.6048 57.864C63.1488 57.864 63.6448 57.736 64.0928 57.48C64.5514 57.2133 64.9141 56.8347 65.1808 56.344C65.4474 55.8427 65.5808 55.2613 65.5808 54.6ZM75.2349 47.16V59H73.7789V47.16H75.2349ZM78.4684 48.808C78.191 48.808 77.9564 48.712 77.7644 48.52C77.5724 48.328 77.4764 48.0933 77.4764 47.816C77.4764 47.5387 77.5724 47.304 77.7644 47.112C77.9564 46.92 78.191 46.824 78.4684 46.824C78.735 46.824 78.959 46.92 79.1404 47.112C79.3324 47.304 79.4284 47.5387 79.4284 47.816C79.4284 48.0933 79.3324 48.328 79.1404 48.52C78.959 48.712 78.735 48.808 78.4684 48.808ZM79.1724 50.232V59H77.7164V50.232H79.1724ZM84.7579 59.144C84.0859 59.144 83.4832 59.032 82.9499 58.808C82.4165 58.5733 81.9952 58.2533 81.6859 57.848C81.3765 57.432 81.2059 56.9573 81.1739 56.424H82.6779C82.7205 56.8613 82.9232 57.2187 83.2859 57.496C83.6592 57.7733 84.1445 57.912 84.7419 57.912C85.2965 57.912 85.7339 57.7893 86.0539 57.544C86.3739 57.2987 86.5339 56.9893 86.5339 56.616C86.5339 56.232 86.3632 55.9493 86.0219 55.768C85.6805 55.576 85.1525 55.3893 84.4379 55.208C83.7872 55.0373 83.2539 54.8667 82.8379 54.696C82.4325 54.5147 82.0805 54.2533 81.7819 53.912C81.4939 53.56 81.3499 53.1013 81.3499 52.536C81.3499 52.088 81.4832 51.6773 81.7499 51.304C82.0165 50.9307 82.3952 50.6373 82.8859 50.424C83.3765 50.2 83.9365 50.088 84.5659 50.088C85.5365 50.088 86.3205 50.3333 86.9179 50.824C87.5152 51.3147 87.8352 51.9867 87.8779 52.84H86.4219C86.3899 52.3813 86.2032 52.0133 85.8619 51.736C85.5312 51.4587 85.0832 51.32 84.5179 51.32C83.9952 51.32 83.5792 51.432 83.2699 51.656C82.9605 51.88 82.8059 52.1733 82.8059 52.536C82.8059 52.824 82.8965 53.064 83.0779 53.256C83.2699 53.4373 83.5045 53.5867 83.7819 53.704C84.0699 53.8107 84.4645 53.9333 84.9659 54.072C85.5952 54.2427 86.1072 54.4133 86.5019 54.584C86.8965 54.744 87.2325 54.9893 87.5099 55.32C87.7979 55.6507 87.9472 56.0827 87.9579 56.616C87.9579 57.096 87.8245 57.528 87.5579 57.912C87.2912 58.296 86.9125 58.6 86.4219 58.824C85.9419 59.0373 85.3872 59.144 84.7579 59.144ZM91.7893 51.432V56.6C91.7893 57.0267 91.8799 57.3307 92.0613 57.512C92.2426 57.6827 92.5573 57.768 93.0052 57.768H94.0773V59H92.7653C91.9546 59 91.3466 58.8133 90.9413 58.44C90.5359 58.0667 90.3333 57.4533 90.3333 56.6V51.432H89.1973V50.232H90.3333V48.024H91.7893V50.232H94.0773V51.432H91.7893ZM103.931 59.144C103.11 59.144 102.363 58.9573 101.691 58.584C101.03 58.2107 100.507 57.6827 100.123 57C99.7497 56.3067 99.563 55.5067 99.563 54.6C99.563 53.704 99.755 52.9147 100.139 52.232C100.534 51.5387 101.067 51.0107 101.739 50.648C102.411 50.2747 103.163 50.088 103.995 50.088C104.827 50.088 105.579 50.2747 106.251 50.648C106.923 51.0107 107.451 51.5333 107.835 52.216C108.23 52.8987 108.427 53.6933 108.427 54.6C108.427 55.5067 108.224 56.3067 107.819 57C107.424 57.6827 106.886 58.2107 106.203 58.584C105.52 58.9573 104.763 59.144 103.931 59.144ZM103.931 57.864C104.454 57.864 104.944 57.7413 105.403 57.496C105.862 57.2507 106.23 56.8827 106.507 56.392C106.795 55.9013 106.939 55.304 106.939 54.6C106.939 53.896 106.8 53.2987 106.523 52.808C106.246 52.3173 105.883 51.9547 105.435 51.72C104.987 51.4747 104.502 51.352 103.979 51.352C103.446 51.352 102.955 51.4747 102.507 51.72C102.07 51.9547 101.718 52.3173 101.451 52.808C101.184 53.2987 101.051 53.896 101.051 54.6C101.051 55.3147 101.179 55.9173 101.435 56.408C101.702 56.8987 102.054 57.2667 102.491 57.512C102.928 57.7467 103.408 57.864 103.931 57.864ZM113.909 51.432H112.069V59H110.613V51.432H109.477V50.232H110.613V49.608C110.613 48.6267 110.864 47.912 111.365 47.464C111.877 47.0053 112.693 46.776 113.813 46.776V47.992C113.173 47.992 112.72 48.12 112.453 48.376C112.197 48.6213 112.069 49.032 112.069 49.608V50.232H113.909V51.432ZM122.977 59.144C122.305 59.144 121.702 59.032 121.169 58.808C120.635 58.5733 120.214 58.2533 119.905 57.848C119.595 57.432 119.425 56.9573 119.393 56.424H120.897C120.939 56.8613 121.142 57.2187 121.505 57.496C121.878 57.7733 122.363 57.912 122.961 57.912C123.515 57.912 123.953 57.7893 124.273 57.544C124.593 57.2987 124.753 56.9893 124.753 56.616C124.753 56.232 124.582 55.9493 124.241 55.768C123.899 55.576 123.371 55.3893 122.657 55.208C122.006 55.0373 121.473 54.8667 121.057 54.696C120.651 54.5147 120.299 54.2533 120.001 53.912C119.713 53.56 119.569 53.1013 119.569 52.536C119.569 52.088 119.702 51.6773 119.969 51.304C120.235 50.9307 120.614 50.6373 121.105 50.424C121.595 50.2 122.155 50.088 122.785 50.088C123.755 50.088 124.539 50.3333 125.137 50.824C125.734 51.3147 126.054 51.9867 126.097 52.84H124.641C124.609 52.3813 124.422 52.0133 124.081 51.736C123.75 51.4587 123.302 51.32 122.737 51.32C122.214 51.32 121.798 51.432 121.489 51.656C121.179 51.88 121.025 52.1733 121.025 52.536C121.025 52.824 121.115 53.064 121.297 53.256C121.489 53.4373 121.723 53.5867 122.001 53.704C122.289 53.8107 122.683 53.9333 123.185 54.072C123.814 54.2427 124.326 54.4133 124.721 54.584C125.115 54.744 125.451 54.9893 125.729 55.32C126.017 55.6507 126.166 56.0827 126.177 56.616C126.177 57.096 126.043 57.528 125.777 57.912C125.51 58.296 125.131 58.6 124.641 58.824C124.161 59.0373 123.606 59.144 122.977 59.144ZM129.688 51.848C129.976 51.3467 130.403 50.9307 130.968 50.6C131.544 50.2587 132.211 50.088 132.968 50.088C133.747 50.088 134.451 50.2747 135.08 50.648C135.72 51.0213 136.221 51.5493 136.584 52.232C136.947 52.904 137.128 53.688 137.128 54.584C137.128 55.4693 136.947 56.2587 136.584 56.952C136.221 57.6453 135.72 58.184 135.08 58.568C134.451 58.952 133.747 59.144 132.968 59.144C132.221 59.144 131.56 58.9787 130.984 58.648C130.419 58.3067 129.987 57.8853 129.688 57.384V63.16H128.232V50.232H129.688V51.848ZM135.64 54.584C135.64 53.9227 135.507 53.3467 135.24 52.856C134.973 52.3653 134.611 51.992 134.152 51.736C133.704 51.48 133.208 51.352 132.664 51.352C132.131 51.352 131.635 51.4853 131.176 51.752C130.728 52.008 130.365 52.3867 130.088 52.888C129.821 53.3787 129.688 53.9493 129.688 54.6C129.688 55.2613 129.821 55.8427 130.088 56.344C130.365 56.8347 130.728 57.2133 131.176 57.48C131.635 57.736 132.131 57.864 132.664 57.864C133.208 57.864 133.704 57.736 134.152 57.48C134.611 57.2133 134.973 56.8347 135.24 56.344C135.507 55.8427 135.64 55.256 135.64 54.584ZM147.045 54.28C147.045 54.5573 147.029 54.8507 146.997 55.16H139.989C140.042 56.024 140.335 56.7013 140.869 57.192C141.413 57.672 142.069 57.912 142.837 57.912C143.466 57.912 143.989 57.768 144.405 57.48C144.831 57.1813 145.13 56.7867 145.301 56.296H146.869C146.634 57.1387 146.165 57.8267 145.461 58.36C144.757 58.8827 143.882 59.144 142.837 59.144C142.005 59.144 141.258 58.9573 140.597 58.584C139.946 58.2107 139.434 57.6827 139.061 57C138.687 56.3067 138.501 55.5067 138.501 54.6C138.501 53.6933 138.682 52.8987 139.045 52.216C139.407 51.5333 139.914 51.0107 140.565 50.648C141.226 50.2747 141.983 50.088 142.837 50.088C143.669 50.088 144.405 50.2693 145.045 50.632C145.685 50.9947 146.175 51.496 146.517 52.136C146.869 52.7653 147.045 53.48 147.045 54.28ZM145.541 53.976C145.541 53.4213 145.418 52.9467 145.173 52.552C144.927 52.1467 144.591 51.8427 144.165 51.64C143.749 51.4267 143.285 51.32 142.773 51.32C142.037 51.32 141.407 51.5547 140.885 52.024C140.373 52.4933 140.079 53.144 140.005 53.976H145.541ZM148.422 54.6C148.422 53.6933 148.604 52.904 148.966 52.232C149.329 51.5493 149.83 51.0213 150.47 50.648C151.121 50.2747 151.862 50.088 152.694 50.088C153.772 50.088 154.657 50.3493 155.35 50.872C156.054 51.3947 156.518 52.12 156.742 53.048H155.174C155.025 52.5147 154.732 52.0933 154.294 51.784C153.868 51.4747 153.334 51.32 152.694 51.32C151.862 51.32 151.19 51.608 150.678 52.184C150.166 52.7493 149.91 53.5547 149.91 54.6C149.91 55.656 150.166 56.472 150.678 57.048C151.19 57.624 151.862 57.912 152.694 57.912C153.334 57.912 153.868 57.7627 154.294 57.464C154.721 57.1653 155.014 56.7387 155.174 56.184H156.742C156.508 57.08 156.038 57.8 155.334 58.344C154.63 58.8773 153.75 59.144 152.694 59.144C151.862 59.144 151.121 58.9573 150.47 58.584C149.83 58.2107 149.329 57.6827 148.966 57C148.604 56.3173 148.422 55.5173 148.422 54.6ZM159.437 48.808C159.16 48.808 158.925 48.712 158.733 48.52C158.541 48.328 158.445 48.0933 158.445 47.816C158.445 47.5387 158.541 47.304 158.733 47.112C158.925 46.92 159.16 46.824 159.437 46.824C159.704 46.824 159.928 46.92 160.109 47.112C160.301 47.304 160.397 47.5387 160.397 47.816C160.397 48.0933 160.301 48.328 160.109 48.52C159.928 48.712 159.704 48.808 159.437 48.808ZM160.141 50.232V59H158.685V50.232H160.141ZM166.191 51.432H164.351V59H162.895V51.432H161.759V50.232H162.895V49.608C162.895 48.6267 163.145 47.912 163.647 47.464C164.159 47.0053 164.975 46.776 166.095 46.776V47.992C165.455 47.992 165.001 48.12 164.735 48.376C164.479 48.6213 164.351 49.032 164.351 49.608V50.232H166.191V51.432ZM168.64 48.808C168.363 48.808 168.128 48.712 167.936 48.52C167.744 48.328 167.648 48.0933 167.648 47.816C167.648 47.5387 167.744 47.304 167.936 47.112C168.128 46.92 168.363 46.824 168.64 46.824C168.907 46.824 169.131 46.92 169.312 47.112C169.504 47.304 169.6 47.5387 169.6 47.816C169.6 48.0933 169.504 48.328 169.312 48.52C169.131 48.712 168.907 48.808 168.64 48.808ZM169.344 50.232V59H167.888V50.232H169.344ZM171.282 54.6C171.282 53.6933 171.463 52.904 171.826 52.232C172.188 51.5493 172.69 51.0213 173.33 50.648C173.98 50.2747 174.722 50.088 175.554 50.088C176.631 50.088 177.516 50.3493 178.21 50.872C178.914 51.3947 179.378 52.12 179.602 53.048H178.034C177.884 52.5147 177.591 52.0933 177.154 51.784C176.727 51.4747 176.194 51.32 175.554 51.32C174.722 51.32 174.05 51.608 173.538 52.184C173.026 52.7493 172.77 53.5547 172.77 54.6C172.77 55.656 173.026 56.472 173.538 57.048C174.05 57.624 174.722 57.912 175.554 57.912C176.194 57.912 176.727 57.7627 177.154 57.464C177.58 57.1653 177.874 56.7387 178.034 56.184H179.602C179.367 57.08 178.898 57.8 178.194 58.344C177.49 58.8773 176.61 59.144 175.554 59.144C174.722 59.144 173.98 58.9573 173.33 58.584C172.69 58.2107 172.188 57.6827 171.826 57C171.463 56.3173 171.282 55.5173 171.282 54.6ZM186.562 48.808C186.285 48.808 186.05 48.712 185.858 48.52C185.666 48.328 185.57 48.0933 185.57 47.816C185.57 47.5387 185.666 47.304 185.858 47.112C186.05 46.92 186.285 46.824 186.562 46.824C186.829 46.824 187.053 46.92 187.234 47.112C187.426 47.304 187.522 47.5387 187.522 47.816C187.522 48.0933 187.426 48.328 187.234 48.52C187.053 48.712 186.829 48.808 186.562 48.808ZM187.266 50.232V59H185.81V50.232H187.266ZM194.02 50.072C195.086 50.072 195.95 50.3973 196.612 51.048C197.273 51.688 197.604 52.616 197.604 53.832V59H196.164V54.04C196.164 53.1653 195.945 52.4987 195.508 52.04C195.07 51.5707 194.473 51.336 193.716 51.336C192.948 51.336 192.334 51.576 191.876 52.056C191.428 52.536 191.204 53.2347 191.204 54.152V59H189.748V50.232H191.204V51.48C191.492 51.032 191.881 50.6853 192.372 50.44C192.873 50.1947 193.422 50.072 194.02 50.072ZM203.55 51.432H201.71V59H200.254V51.432H199.118V50.232H200.254V49.608C200.254 48.6267 200.505 47.912 201.006 47.464C201.518 47.0053 202.334 46.776 203.454 46.776V47.992C202.814 47.992 202.361 48.12 202.094 48.376C201.838 48.6213 201.71 49.032 201.71 49.608V50.232H203.55V51.432ZM206.704 47.16V59H205.248V47.16H206.704ZM216.961 50.232V59H215.505V57.704C215.228 58.152 214.838 58.504 214.337 58.76C213.846 59.0053 213.302 59.128 212.705 59.128C212.022 59.128 211.409 58.9893 210.865 58.712C210.321 58.424 209.889 57.9973 209.569 57.432C209.26 56.8667 209.105 56.1787 209.105 55.368V50.232H210.545V55.176C210.545 56.04 210.764 56.7067 211.201 57.176C211.638 57.6347 212.236 57.864 212.993 57.864C213.772 57.864 214.385 57.624 214.833 57.144C215.281 56.664 215.505 55.9653 215.505 55.048V50.232H216.961ZM227.42 54.28C227.42 54.5573 227.404 54.8507 227.372 55.16H220.364C220.417 56.024 220.71 56.7013 221.244 57.192C221.788 57.672 222.444 57.912 223.212 57.912C223.841 57.912 224.364 57.768 224.78 57.48C225.206 57.1813 225.505 56.7867 225.676 56.296H227.244C227.009 57.1387 226.54 57.8267 225.836 58.36C225.132 58.8827 224.257 59.144 223.212 59.144C222.38 59.144 221.633 58.9573 220.972 58.584C220.321 58.2107 219.809 57.6827 219.436 57C219.062 56.3067 218.876 55.5067 218.876 54.6C218.876 53.6933 219.057 52.8987 219.42 52.216C219.782 51.5333 220.289 51.0107 220.94 50.648C221.601 50.2747 222.358 50.088 223.212 50.088C224.044 50.088 224.78 50.2693 225.42 50.632C226.06 50.9947 226.55 51.496 226.892 52.136C227.244 52.7653 227.42 53.48 227.42 54.28ZM225.916 53.976C225.916 53.4213 225.793 52.9467 225.548 52.552C225.302 52.1467 224.966 51.8427 224.54 51.64C224.124 51.4267 223.66 51.32 223.148 51.32C222.412 51.32 221.782 51.5547 221.26 52.024C220.748 52.4933 220.454 53.144 220.38 53.976H225.916ZM233.613 50.072C234.68 50.072 235.544 50.3973 236.205 51.048C236.867 51.688 237.197 52.616 237.197 53.832V59H235.757V54.04C235.757 53.1653 235.539 52.4987 235.101 52.04C234.664 51.5707 234.067 51.336 233.309 51.336C232.541 51.336 231.928 51.576 231.469 52.056C231.021 52.536 230.797 53.2347 230.797 54.152V59H229.341V50.232H230.797V51.48C231.085 51.032 231.475 50.6853 231.965 50.44C232.467 50.1947 233.016 50.072 233.613 50.072ZM239.032 54.6C239.032 53.6933 239.213 52.904 239.576 52.232C239.938 51.5493 240.44 51.0213 241.08 50.648C241.73 50.2747 242.472 50.088 243.304 50.088C244.381 50.088 245.266 50.3493 245.96 50.872C246.664 51.3947 247.128 52.12 247.352 53.048H245.784C245.634 52.5147 245.341 52.0933 244.904 51.784C244.477 51.4747 243.944 51.32 243.304 51.32C242.472 51.32 241.8 51.608 241.288 52.184C240.776 52.7493 240.52 53.5547 240.52 54.6C240.52 55.656 240.776 56.472 241.288 57.048C241.8 57.624 242.472 57.912 243.304 57.912C243.944 57.912 244.477 57.7627 244.904 57.464C245.33 57.1653 245.624 56.7387 245.784 56.184H247.352C247.117 57.08 246.648 57.8 245.944 58.344C245.24 58.8773 244.36 59.144 243.304 59.144C242.472 59.144 241.73 58.9573 241.08 58.584C240.44 58.2107 239.938 57.6827 239.576 57C239.213 56.3173 239.032 55.5173 239.032 54.6ZM257.295 54.28C257.295 54.5573 257.279 54.8507 257.247 55.16H250.239C250.292 56.024 250.585 56.7013 251.119 57.192C251.663 57.672 252.319 57.912 253.087 57.912C253.716 57.912 254.239 57.768 254.655 57.48C255.081 57.1813 255.38 56.7867 255.551 56.296H257.119C256.884 57.1387 256.415 57.8267 255.711 58.36C255.007 58.8827 254.132 59.144 253.087 59.144C252.255 59.144 251.508 58.9573 250.847 58.584C250.196 58.2107 249.684 57.6827 249.311 57C248.937 56.3067 248.751 55.5067 248.751 54.6C248.751 53.6933 248.932 52.8987 249.295 52.216C249.657 51.5333 250.164 51.0107 250.815 50.648C251.476 50.2747 252.233 50.088 253.087 50.088C253.919 50.088 254.655 50.2693 255.295 50.632C255.935 50.9947 256.425 51.496 256.767 52.136C257.119 52.7653 257.295 53.48 257.295 54.28ZM255.791 53.976C255.791 53.4213 255.668 52.9467 255.423 52.552C255.177 52.1467 254.841 51.8427 254.415 51.64C253.999 51.4267 253.535 51.32 253.023 51.32C252.287 51.32 251.657 51.5547 251.135 52.024C250.623 52.4933 250.329 53.144 250.255 53.976H255.791ZM260.672 51.656C260.928 51.1547 261.291 50.7653 261.76 50.488C262.24 50.2107 262.822 50.072 263.504 50.072V51.576H263.12C261.488 51.576 260.672 52.4613 260.672 54.232V59H259.216V50.232H260.672V51.656ZM268.289 59.144C267.617 59.144 267.014 59.032 266.481 58.808C265.948 58.5733 265.526 58.2533 265.217 57.848C264.908 57.432 264.737 56.9573 264.705 56.424H266.209C266.252 56.8613 266.454 57.2187 266.817 57.496C267.19 57.7733 267.676 57.912 268.273 57.912C268.828 57.912 269.265 57.7893 269.585 57.544C269.905 57.2987 270.065 56.9893 270.065 56.616C270.065 56.232 269.894 55.9493 269.553 55.768C269.212 55.576 268.684 55.3893 267.969 55.208C267.318 55.0373 266.785 54.8667 266.369 54.696C265.964 54.5147 265.612 54.2533 265.313 53.912C265.025 53.56 264.881 53.1013 264.881 52.536C264.881 52.088 265.014 51.6773 265.281 51.304C265.548 50.9307 265.926 50.6373 266.417 50.424C266.908 50.2 267.468 50.088 268.097 50.088C269.068 50.088 269.852 50.3333 270.449 50.824C271.046 51.3147 271.366 51.9867 271.409 52.84H269.953C269.921 52.3813 269.734 52.0133 269.393 51.736C269.062 51.4587 268.614 51.32 268.049 51.32C267.526 51.32 267.11 51.432 266.801 51.656C266.492 51.88 266.337 52.1733 266.337 52.536C266.337 52.824 266.428 53.064 266.609 53.256C266.801 53.4373 267.036 53.5867 267.313 53.704C267.601 53.8107 267.996 53.9333 268.497 54.072C269.126 54.2427 269.638 54.4133 270.033 54.584C270.428 54.744 270.764 54.9893 271.041 55.32C271.329 55.6507 271.478 56.0827 271.489 56.616C271.489 57.096 271.356 57.528 271.089 57.912C270.822 58.296 270.444 58.6 269.953 58.824C269.473 59.0373 268.918 59.144 268.289 59.144ZM278.562 48.808C278.285 48.808 278.05 48.712 277.858 48.52C277.666 48.328 277.57 48.0933 277.57 47.816C277.57 47.5387 277.666 47.304 277.858 47.112C278.05 46.92 278.285 46.824 278.562 46.824C278.829 46.824 279.053 46.92 279.234 47.112C279.426 47.304 279.522 47.5387 279.522 47.816C279.522 48.0933 279.426 48.328 279.234 48.52C279.053 48.712 278.829 48.808 278.562 48.808ZM279.266 50.232V59H277.81V50.232H279.266ZM286.02 50.072C287.086 50.072 287.95 50.3973 288.612 51.048C289.273 51.688 289.604 52.616 289.604 53.832V59H288.164V54.04C288.164 53.1653 287.945 52.4987 287.508 52.04C287.07 51.5707 286.473 51.336 285.716 51.336C284.948 51.336 284.334 51.576 283.876 52.056C283.428 52.536 283.204 53.2347 283.204 54.152V59H281.748V50.232H283.204V51.48C283.492 51.032 283.881 50.6853 284.372 50.44C284.873 50.1947 285.422 50.072 286.02 50.072ZM303.8 50.232L298.52 63.128H297.016L298.744 58.904L295.208 50.232H296.824L299.576 57.336L302.296 50.232H303.8ZM309.087 59.144C308.266 59.144 307.519 58.9573 306.847 58.584C306.186 58.2107 305.663 57.6827 305.279 57C304.906 56.3067 304.719 55.5067 304.719 54.6C304.719 53.704 304.911 52.9147 305.295 52.232C305.69 51.5387 306.223 51.0107 306.895 50.648C307.567 50.2747 308.319 50.088 309.151 50.088C309.983 50.088 310.735 50.2747 311.407 50.648C312.079 51.0107 312.607 51.5333 312.991 52.216C313.386 52.8987 313.583 53.6933 313.583 54.6C313.583 55.5067 313.381 56.3067 312.975 57C312.581 57.6827 312.042 58.2107 311.359 58.584C310.677 58.9573 309.919 59.144 309.087 59.144ZM309.087 57.864C309.61 57.864 310.101 57.7413 310.559 57.496C311.018 57.2507 311.386 56.8827 311.663 56.392C311.951 55.9013 312.095 55.304 312.095 54.6C312.095 53.896 311.957 53.2987 311.679 52.808C311.402 52.3173 311.039 51.9547 310.591 51.72C310.143 51.4747 309.658 51.352 309.135 51.352C308.602 51.352 308.111 51.4747 307.663 51.72C307.226 51.9547 306.874 52.3173 306.607 52.808C306.341 53.2987 306.207 53.896 306.207 54.6C306.207 55.3147 306.335 55.9173 306.591 56.408C306.858 56.8987 307.21 57.2667 307.647 57.512C308.085 57.7467 308.565 57.864 309.087 57.864ZM323.274 50.232V59H321.818V57.704C321.54 58.152 321.151 58.504 320.65 58.76C320.159 59.0053 319.615 59.128 319.018 59.128C318.335 59.128 317.722 58.9893 317.178 58.712C316.634 58.424 316.202 57.9973 315.882 57.432C315.572 56.8667 315.418 56.1787 315.418 55.368V50.232H316.858V55.176C316.858 56.04 317.076 56.7067 317.514 57.176C317.951 57.6347 318.548 57.864 319.306 57.864C320.084 57.864 320.698 57.624 321.146 57.144C321.594 56.664 321.818 55.9653 321.818 55.048V50.232H323.274ZM327.188 51.656C327.444 51.1547 327.807 50.7653 328.276 50.488C328.756 50.2107 329.337 50.072 330.02 50.072V51.576H329.636C328.004 51.576 327.188 52.4613 327.188 54.232V59H325.732V50.232H327.188V51.656ZM30.504 74.072C31.5707 74.072 32.4347 74.3973 33.096 75.048C33.7573 75.688 34.088 76.616 34.088 77.832V83H32.648V78.04C32.648 77.1653 32.4293 76.4987 31.992 76.04C31.5547 75.5707 30.9573 75.336 30.2 75.336C29.432 75.336 28.8187 75.576 28.36 76.056C27.912 76.536 27.688 77.2347 27.688 78.152V83H26.232V74.232H27.688V75.48C27.976 75.032 28.3653 74.6853 28.856 74.44C29.3573 74.1947 29.9067 74.072 30.504 74.072ZM37.2184 72.808C36.941 72.808 36.7064 72.712 36.5144 72.52C36.3224 72.328 36.2264 72.0933 36.2264 71.816C36.2264 71.5387 36.3224 71.304 36.5144 71.112C36.7064 70.92 36.941 70.824 37.2184 70.824C37.485 70.824 37.709 70.92 37.8904 71.112C38.0824 71.304 38.1784 71.5387 38.1784 71.816C38.1784 72.0933 38.0824 72.328 37.8904 72.52C37.709 72.712 37.485 72.808 37.2184 72.808ZM37.9224 74.232V83H36.4664V74.232H37.9224ZM39.8599 78.6C39.8599 77.6933 40.0412 76.904 40.4039 76.232C40.7665 75.5493 41.2679 75.0213 41.9079 74.648C42.5585 74.2747 43.2999 74.088 44.1319 74.088C45.2092 74.088 46.0945 74.3493 46.7879 74.872C47.4919 75.3947 47.9559 76.12 48.1799 77.048H46.6119C46.4625 76.5147 46.1692 76.0933 45.7319 75.784C45.3052 75.4747 44.7719 75.32 44.1319 75.32C43.2999 75.32 42.6279 75.608 42.1159 76.184C41.6039 76.7493 41.3479 77.5547 41.3479 78.6C41.3479 79.656 41.6039 80.472 42.1159 81.048C42.6279 81.624 43.2999 81.912 44.1319 81.912C44.7719 81.912 45.3052 81.7627 45.7319 81.464C46.1585 81.1653 46.4519 80.7387 46.6119 80.184H48.1799C47.9452 81.08 47.4759 81.8 46.7719 82.344C46.0679 82.8773 45.1879 83.144 44.1319 83.144C43.2999 83.144 42.5585 82.9573 41.9079 82.584C41.2679 82.2107 40.7665 81.6827 40.4039 81C40.0412 80.3173 39.8599 79.5173 39.8599 78.6ZM54.4746 74.072C55.136 74.072 55.7333 74.216 56.2666 74.504C56.8 74.7813 57.216 75.2027 57.5146 75.768C57.824 76.3333 57.9786 77.0213 57.9786 77.832V83H56.5386V78.04C56.5386 77.1653 56.32 76.4987 55.8826 76.04C55.4453 75.5707 54.848 75.336 54.0906 75.336C53.3226 75.336 52.7093 75.576 52.2506 76.056C51.8026 76.536 51.5786 77.2347 51.5786 78.152V83H50.1226V71.16H51.5786V75.48C51.8666 75.032 52.2613 74.6853 52.7626 74.44C53.2746 74.1947 53.8453 74.072 54.4746 74.072ZM68.357 78.28C68.357 78.5573 68.341 78.8507 68.309 79.16H61.301C61.3543 80.024 61.6477 80.7013 62.181 81.192C62.725 81.672 63.381 81.912 64.149 81.912C64.7783 81.912 65.301 81.768 65.717 81.48C66.1437 81.1813 66.4423 80.7867 66.613 80.296H68.181C67.9463 81.1387 67.477 81.8267 66.773 82.36C66.069 82.8827 65.1943 83.144 64.149 83.144C63.317 83.144 62.5703 82.9573 61.909 82.584C61.2583 82.2107 60.7463 81.6827 60.373 81C59.9997 80.3067 59.813 79.5067 59.813 78.6C59.813 77.6933 59.9943 76.8987 60.357 76.216C60.7197 75.5333 61.2263 75.0107 61.877 74.648C62.5383 74.2747 63.2957 74.088 64.149 74.088C64.981 74.088 65.717 74.2693 66.357 74.632C66.997 74.9947 67.4877 75.496 67.829 76.136C68.181 76.7653 68.357 77.48 68.357 78.28ZM66.853 77.976C66.853 77.4213 66.7303 76.9467 66.485 76.552C66.2397 76.1467 65.9037 75.8427 65.477 75.64C65.061 75.4267 64.597 75.32 64.085 75.32C63.349 75.32 62.7197 75.5547 62.197 76.024C61.685 76.4933 61.3917 77.144 61.317 77.976H66.853ZM74.0005 78.584C74.0005 77.688 74.1818 76.904 74.5445 76.232C74.9072 75.5493 75.4032 75.0213 76.0325 74.648C76.6725 74.2747 77.3818 74.088 78.1605 74.088C78.9285 74.088 79.5952 74.2533 80.1605 74.584C80.7258 74.9147 81.1472 75.3307 81.4245 75.832V74.232H82.8965V83H81.4245V81.368C81.1365 81.88 80.7045 82.3067 80.1285 82.648C79.5632 82.9787 78.9018 83.144 78.1445 83.144C77.3658 83.144 76.6618 82.952 76.0325 82.568C75.4032 82.184 74.9072 81.6453 74.5445 80.952C74.1818 80.2587 74.0005 79.4693 74.0005 78.584ZM81.4245 78.6C81.4245 77.9387 81.2912 77.3627 81.0245 76.872C80.7578 76.3813 80.3952 76.008 79.9365 75.752C79.4885 75.4853 78.9925 75.352 78.4485 75.352C77.9045 75.352 77.4085 75.48 76.9605 75.736C76.5125 75.992 76.1552 76.3653 75.8885 76.856C75.6218 77.3467 75.4885 77.9227 75.4885 78.584C75.4885 79.256 75.6218 79.8427 75.8885 80.344C76.1552 80.8347 76.5125 81.2133 76.9605 81.48C77.4085 81.736 77.9045 81.864 78.4485 81.864C78.9925 81.864 79.4885 81.736 79.9365 81.48C80.3952 81.2133 80.7578 80.8347 81.0245 80.344C81.2912 79.8427 81.4245 79.2613 81.4245 78.6ZM87.133 75.432V80.6C87.133 81.0267 87.2237 81.3307 87.405 81.512C87.5863 81.6827 87.901 81.768 88.349 81.768H89.421V83H88.109C87.2983 83 86.6903 82.8133 86.285 82.44C85.8797 82.0667 85.677 81.4533 85.677 80.6V75.432H84.541V74.232H85.677V72.024H87.133V74.232H89.421V75.432H87.133ZM103.003 74.232L97.7228 87.128H96.2188L97.9468 82.904L94.4108 74.232H96.0268L98.7788 81.336L101.499 74.232H103.003ZM108.29 83.144C107.469 83.144 106.722 82.9573 106.05 82.584C105.389 82.2107 104.866 81.6827 104.482 81C104.109 80.3067 103.922 79.5067 103.922 78.6C103.922 77.704 104.114 76.9147 104.498 76.232C104.893 75.5387 105.426 75.0107 106.098 74.648C106.77 74.2747 107.522 74.088 108.354 74.088C109.186 74.088 109.938 74.2747 110.61 74.648C111.282 75.0107 111.81 75.5333 112.194 76.216C112.589 76.8987 112.786 77.6933 112.786 78.6C112.786 79.5067 112.584 80.3067 112.178 81C111.784 81.6827 111.245 82.2107 110.562 82.584C109.88 82.9573 109.122 83.144 108.29 83.144ZM108.29 81.864C108.813 81.864 109.304 81.7413 109.762 81.496C110.221 81.2507 110.589 80.8827 110.866 80.392C111.154 79.9013 111.298 79.304 111.298 78.6C111.298 77.896 111.16 77.2987 110.882 76.808C110.605 76.3173 110.242 75.9547 109.794 75.72C109.346 75.4747 108.861 75.352 108.338 75.352C107.805 75.352 107.314 75.4747 106.866 75.72C106.429 75.9547 106.077 76.3173 105.81 76.808C105.544 77.2987 105.41 77.896 105.41 78.6C105.41 79.3147 105.538 79.9173 105.794 80.408C106.061 80.8987 106.413 81.2667 106.85 81.512C107.288 81.7467 107.768 81.864 108.29 81.864ZM122.477 74.232V83H121.021V81.704C120.743 82.152 120.354 82.504 119.853 82.76C119.362 83.0053 118.818 83.128 118.221 83.128C117.538 83.128 116.925 82.9893 116.381 82.712C115.837 82.424 115.405 81.9973 115.085 81.432C114.775 80.8667 114.621 80.1787 114.621 79.368V74.232H116.061V79.176C116.061 80.04 116.279 80.7067 116.717 81.176C117.154 81.6347 117.751 81.864 118.509 81.864C119.287 81.864 119.901 81.624 120.349 81.144C120.797 80.664 121.021 79.9653 121.021 79.048V74.232H122.477ZM126.391 75.656C126.647 75.1547 127.01 74.7653 127.479 74.488C127.959 74.2107 128.54 74.072 129.223 74.072V75.576H128.839C127.207 75.576 126.391 76.4613 126.391 78.232V83H124.935V74.232H126.391V75.656ZM138.738 75.432H136.898V83H135.442V75.432H134.306V74.232H135.442V73.608C135.442 72.6267 135.692 71.912 136.194 71.464C136.706 71.0053 137.522 70.776 138.641 70.776V71.992C138.002 71.992 137.548 72.12 137.282 72.376C137.026 72.6213 136.898 73.032 136.898 73.608V74.232H138.738V75.432ZM141.187 72.808C140.91 72.808 140.675 72.712 140.483 72.52C140.291 72.328 140.195 72.0933 140.195 71.816C140.195 71.5387 140.291 71.304 140.483 71.112C140.675 70.92 140.91 70.824 141.187 70.824C141.454 70.824 141.678 70.92 141.859 71.112C142.051 71.304 142.147 71.5387 142.147 71.816C142.147 72.0933 142.051 72.328 141.859 72.52C141.678 72.712 141.454 72.808 141.187 72.808ZM141.891 74.232V83H140.435V74.232H141.891ZM148.645 74.072C149.711 74.072 150.575 74.3973 151.237 75.048C151.898 75.688 152.229 76.616 152.229 77.832V83H150.789V78.04C150.789 77.1653 150.57 76.4987 150.133 76.04C149.695 75.5707 149.098 75.336 148.341 75.336C147.573 75.336 146.959 75.576 146.501 76.056C146.053 76.536 145.829 77.2347 145.829 78.152V83H144.373V74.232H145.829V75.48C146.117 75.032 146.506 74.6853 146.997 74.44C147.498 74.1947 148.047 74.072 148.645 74.072ZM158.223 74.088C158.98 74.088 159.642 74.2533 160.207 74.584C160.783 74.9147 161.21 75.3307 161.487 75.832V74.232H162.959V83.192C162.959 83.992 162.788 84.7013 162.447 85.32C162.106 85.9493 161.615 86.44 160.975 86.792C160.346 87.144 159.61 87.32 158.767 87.32C157.615 87.32 156.655 87.048 155.887 86.504C155.119 85.96 154.666 85.2187 154.527 84.28H155.967C156.127 84.8133 156.458 85.24 156.959 85.56C157.46 85.8907 158.063 86.056 158.767 86.056C159.567 86.056 160.218 85.8053 160.719 85.304C161.231 84.8027 161.487 84.0987 161.487 83.192V81.352C161.199 81.864 160.772 82.2907 160.207 82.632C159.642 82.9733 158.98 83.144 158.223 83.144C157.444 83.144 156.735 82.952 156.095 82.568C155.466 82.184 154.97 81.6453 154.607 80.952C154.244 80.2587 154.063 79.4693 154.063 78.584C154.063 77.688 154.244 76.904 154.607 76.232C154.97 75.5493 155.466 75.0213 156.095 74.648C156.735 74.2747 157.444 74.088 158.223 74.088ZM161.487 78.6C161.487 77.9387 161.354 77.3627 161.087 76.872C160.82 76.3813 160.458 76.008 159.999 75.752C159.551 75.4853 159.055 75.352 158.511 75.352C157.967 75.352 157.471 75.48 157.023 75.736C156.575 75.992 156.218 76.3653 155.951 76.856C155.684 77.3467 155.551 77.9227 155.551 78.584C155.551 79.256 155.684 79.8427 155.951 80.344C156.218 80.8347 156.575 81.2133 157.023 81.48C157.471 81.736 157.967 81.864 158.511 81.864C159.055 81.864 159.551 81.736 159.999 81.48C160.458 81.2133 160.82 80.8347 161.087 80.344C161.354 79.8427 161.487 79.2613 161.487 78.6ZM173.42 78.28C173.42 78.5573 173.404 78.8507 173.372 79.16H166.364C166.417 80.024 166.71 80.7013 167.244 81.192C167.788 81.672 168.444 81.912 169.212 81.912C169.841 81.912 170.364 81.768 170.78 81.48C171.206 81.1813 171.505 80.7867 171.676 80.296H173.244C173.009 81.1387 172.54 81.8267 171.836 82.36C171.132 82.8827 170.257 83.144 169.212 83.144C168.38 83.144 167.633 82.9573 166.972 82.584C166.321 82.2107 165.809 81.6827 165.436 81C165.062 80.3067 164.876 79.5067 164.876 78.6C164.876 77.6933 165.057 76.8987 165.42 76.216C165.782 75.5333 166.289 75.0107 166.94 74.648C167.601 74.2747 168.358 74.088 169.212 74.088C170.044 74.088 170.78 74.2693 171.42 74.632C172.06 74.9947 172.55 75.496 172.892 76.136C173.244 76.7653 173.42 77.48 173.42 78.28ZM171.916 77.976C171.916 77.4213 171.793 76.9467 171.548 76.552C171.302 76.1467 170.966 75.8427 170.54 75.64C170.124 75.4267 169.66 75.32 169.148 75.32C168.412 75.32 167.782 75.5547 167.26 76.024C166.748 76.4933 166.454 77.144 166.38 77.976H171.916ZM176.797 75.656C177.053 75.1547 177.416 74.7653 177.885 74.488C178.365 74.2107 178.947 74.072 179.629 74.072V75.576H179.245C177.613 75.576 176.797 76.4613 176.797 78.232V83H175.341V74.232H176.797V75.656ZM183.086 75.432V80.6C183.086 81.0267 183.177 81.3307 183.358 81.512C183.539 81.6827 183.854 81.768 184.302 81.768H185.374V83H184.062C183.251 83 182.643 82.8133 182.238 82.44C181.833 82.0667 181.63 81.4533 181.63 80.6V75.432H180.494V74.232H181.63V72.024H183.086V74.232H185.374V75.432H183.086ZM187.89 72.808C187.613 72.808 187.378 72.712 187.186 72.52C186.994 72.328 186.898 72.0933 186.898 71.816C186.898 71.5387 186.994 71.304 187.186 71.112C187.378 70.92 187.613 70.824 187.89 70.824C188.157 70.824 188.381 70.92 188.562 71.112C188.754 71.304 188.85 71.5387 188.85 71.816C188.85 72.0933 188.754 72.328 188.562 72.52C188.381 72.712 188.157 72.808 187.89 72.808ZM188.594 74.232V83H187.138V74.232H188.594ZM192.532 75.848C192.82 75.3467 193.246 74.9307 193.812 74.6C194.388 74.2587 195.054 74.088 195.812 74.088C196.59 74.088 197.294 74.2747 197.924 74.648C198.564 75.0213 199.065 75.5493 199.428 76.232C199.79 76.904 199.972 77.688 199.972 78.584C199.972 79.4693 199.79 80.2587 199.428 80.952C199.065 81.6453 198.564 82.184 197.924 82.568C197.294 82.952 196.59 83.144 195.812 83.144C195.065 83.144 194.404 82.9787 193.828 82.648C193.262 82.3067 192.83 81.8853 192.532 81.384V87.16H191.076V74.232H192.532V75.848ZM198.484 78.584C198.484 77.9227 198.35 77.3467 198.084 76.856C197.817 76.3653 197.454 75.992 196.996 75.736C196.548 75.48 196.052 75.352 195.508 75.352C194.974 75.352 194.478 75.4853 194.02 75.752C193.572 76.008 193.209 76.3867 192.932 76.888C192.665 77.3787 192.532 77.9493 192.532 78.6C192.532 79.2613 192.665 79.8427 192.932 80.344C193.209 80.8347 193.572 81.2133 194.02 81.48C194.478 81.736 194.974 81.864 195.508 81.864C196.052 81.864 196.548 81.736 196.996 81.48C197.454 81.2133 197.817 80.8347 198.084 80.344C198.35 79.8427 198.484 79.256 198.484 78.584ZM204.992 83.144C204.32 83.144 203.718 83.032 203.184 82.808C202.651 82.5733 202.23 82.2533 201.92 81.848C201.611 81.432 201.44 80.9573 201.408 80.424H202.912C202.955 80.8613 203.158 81.2187 203.52 81.496C203.894 81.7733 204.379 81.912 204.976 81.912C205.531 81.912 205.968 81.7893 206.288 81.544C206.608 81.2987 206.768 80.9893 206.768 80.616C206.768 80.232 206.598 79.9493 206.256 79.768C205.915 79.576 205.387 79.3893 204.672 79.208C204.022 79.0373 203.488 78.8667 203.072 78.696C202.667 78.5147 202.315 78.2533 202.016 77.912C201.728 77.56 201.584 77.1013 201.584 76.536C201.584 76.088 201.718 75.6773 201.984 75.304C202.251 74.9307 202.63 74.6373 203.12 74.424C203.611 74.2 204.171 74.088 204.8 74.088C205.771 74.088 206.555 74.3333 207.152 74.824C207.75 75.3147 208.07 75.9867 208.112 76.84H206.656C206.624 76.3813 206.438 76.0133 206.096 75.736C205.766 75.4587 205.318 75.32 204.752 75.32C204.23 75.32 203.814 75.432 203.504 75.656C203.195 75.88 203.04 76.1733 203.04 76.536C203.04 76.824 203.131 77.064 203.312 77.256C203.504 77.4373 203.739 77.5867 204.016 77.704C204.304 77.8107 204.699 77.9333 205.2 78.072C205.83 78.2427 206.342 78.4133 206.736 78.584C207.131 78.744 207.467 78.9893 207.744 79.32C208.032 79.6507 208.182 80.0827 208.192 80.616C208.192 81.096 208.059 81.528 207.792 81.912C207.526 82.296 207.147 82.6 206.656 82.824C206.176 83.0373 205.622 83.144 204.992 83.144ZM217.617 83.144C216.945 83.144 216.343 83.032 215.809 82.808C215.276 82.5733 214.855 82.2533 214.545 81.848C214.236 81.432 214.065 80.9573 214.033 80.424H215.537C215.58 80.8613 215.783 81.2187 216.145 81.496C216.519 81.7733 217.004 81.912 217.601 81.912C218.156 81.912 218.593 81.7893 218.913 81.544C219.233 81.2987 219.393 80.9893 219.393 80.616C219.393 80.232 219.223 79.9493 218.881 79.768C218.54 79.576 218.012 79.3893 217.297 79.208C216.647 79.0373 216.113 78.8667 215.697 78.696C215.292 78.5147 214.94 78.2533 214.641 77.912C214.353 77.56 214.209 77.1013 214.209 76.536C214.209 76.088 214.343 75.6773 214.609 75.304C214.876 74.9307 215.255 74.6373 215.745 74.424C216.236 74.2 216.796 74.088 217.425 74.088C218.396 74.088 219.18 74.3333 219.777 74.824C220.375 75.3147 220.695 75.9867 220.737 76.84H219.281C219.249 76.3813 219.063 76.0133 218.721 75.736C218.391 75.4587 217.943 75.32 217.377 75.32C216.855 75.32 216.439 75.432 216.129 75.656C215.82 75.88 215.665 76.1733 215.665 76.536C215.665 76.824 215.756 77.064 215.937 77.256C216.129 77.4373 216.364 77.5867 216.641 77.704C216.929 77.8107 217.324 77.9333 217.825 78.072C218.455 78.2427 218.967 78.4133 219.361 78.584C219.756 78.744 220.092 78.9893 220.369 79.32C220.657 79.6507 220.807 80.0827 220.817 80.616C220.817 81.096 220.684 81.528 220.417 81.912C220.151 82.296 219.772 82.6 219.281 82.824C218.801 83.0373 218.247 83.144 217.617 83.144ZM226.697 83.144C225.875 83.144 225.129 82.9573 224.457 82.584C223.795 82.2107 223.273 81.6827 222.889 81C222.515 80.3067 222.329 79.5067 222.329 78.6C222.329 77.704 222.521 76.9147 222.905 76.232C223.299 75.5387 223.833 75.0107 224.505 74.648C225.177 74.2747 225.929 74.088 226.761 74.088C227.593 74.088 228.345 74.2747 229.017 74.648C229.689 75.0107 230.217 75.5333 230.601 76.216C230.995 76.8987 231.193 77.6933 231.193 78.6C231.193 79.5067 230.99 80.3067 230.585 81C230.19 81.6827 229.651 82.2107 228.969 82.584C228.286 82.9573 227.529 83.144 226.697 83.144ZM226.697 81.864C227.219 81.864 227.71 81.7413 228.169 81.496C228.627 81.2507 228.995 80.8827 229.273 80.392C229.561 79.9013 229.705 79.304 229.705 78.6C229.705 77.896 229.566 77.2987 229.289 76.808C229.011 76.3173 228.649 75.9547 228.201 75.72C227.753 75.4747 227.267 75.352 226.745 75.352C226.211 75.352 225.721 75.4747 225.273 75.72C224.835 75.9547 224.483 76.3173 224.217 76.808C223.95 77.2987 223.817 77.896 223.817 78.6C223.817 79.3147 223.945 79.9173 224.201 80.408C224.467 80.8987 224.819 81.2667 225.257 81.512C225.694 81.7467 226.174 81.864 226.697 81.864ZM244.925 74.232L239.645 87.128H238.141L239.869 82.904L236.333 74.232H237.949L240.701 81.336L243.421 74.232H244.925ZM250.212 83.144C249.391 83.144 248.644 82.9573 247.972 82.584C247.311 82.2107 246.788 81.6827 246.404 81C246.031 80.3067 245.844 79.5067 245.844 78.6C245.844 77.704 246.036 76.9147 246.42 76.232C246.815 75.5387 247.348 75.0107 248.02 74.648C248.692 74.2747 249.444 74.088 250.276 74.088C251.108 74.088 251.86 74.2747 252.532 74.648C253.204 75.0107 253.732 75.5333 254.116 76.216C254.511 76.8987 254.708 77.6933 254.708 78.6C254.708 79.5067 254.506 80.3067 254.1 81C253.706 81.6827 253.167 82.2107 252.484 82.584C251.802 82.9573 251.044 83.144 250.212 83.144ZM250.212 81.864C250.735 81.864 251.226 81.7413 251.684 81.496C252.143 81.2507 252.511 80.8827 252.788 80.392C253.076 79.9013 253.22 79.304 253.22 78.6C253.22 77.896 253.082 77.2987 252.804 76.808C252.527 76.3173 252.164 75.9547 251.716 75.72C251.268 75.4747 250.783 75.352 250.26 75.352C249.727 75.352 249.236 75.4747 248.788 75.72C248.351 75.9547 247.999 76.3173 247.732 76.808C247.466 77.2987 247.332 77.896 247.332 78.6C247.332 79.3147 247.46 79.9173 247.716 80.408C247.983 80.8987 248.335 81.2667 248.772 81.512C249.21 81.7467 249.69 81.864 250.212 81.864ZM264.399 74.232V83H262.943V81.704C262.665 82.152 262.276 82.504 261.775 82.76C261.284 83.0053 260.74 83.128 260.143 83.128C259.46 83.128 258.847 82.9893 258.303 82.712C257.759 82.424 257.327 81.9973 257.007 81.432C256.697 80.8667 256.543 80.1787 256.543 79.368V74.232H257.983V79.176C257.983 80.04 258.201 80.7067 258.639 81.176C259.076 81.6347 259.673 81.864 260.431 81.864C261.209 81.864 261.823 81.624 262.271 81.144C262.719 80.664 262.943 79.9653 262.943 79.048V74.232H264.399ZM270.579 78.6C270.579 77.6933 270.76 76.904 271.123 76.232C271.485 75.5493 271.987 75.0213 272.627 74.648C273.277 74.2747 274.019 74.088 274.851 74.088C275.928 74.088 276.813 74.3493 277.507 74.872C278.211 75.3947 278.675 76.12 278.899 77.048H277.331C277.181 76.5147 276.888 76.0933 276.451 75.784C276.024 75.4747 275.491 75.32 274.851 75.32C274.019 75.32 273.347 75.608 272.835 76.184C272.323 76.7493 272.067 77.5547 272.067 78.6C272.067 79.656 272.323 80.472 272.835 81.048C273.347 81.624 274.019 81.912 274.851 81.912C275.491 81.912 276.024 81.7627 276.451 81.464C276.877 81.1653 277.171 80.7387 277.331 80.184H278.899C278.664 81.08 278.195 81.8 277.491 82.344C276.787 82.8773 275.907 83.144 274.851 83.144C274.019 83.144 273.277 82.9573 272.627 82.584C271.987 82.2107 271.485 81.6827 271.123 81C270.76 80.3173 270.579 79.5173 270.579 78.6ZM280.297 78.584C280.297 77.688 280.479 76.904 280.841 76.232C281.204 75.5493 281.7 75.0213 282.329 74.648C282.969 74.2747 283.679 74.088 284.457 74.088C285.225 74.088 285.892 74.2533 286.457 74.584C287.023 74.9147 287.444 75.3307 287.721 75.832V74.232H289.193V83H287.721V81.368C287.433 81.88 287.001 82.3067 286.425 82.648C285.86 82.9787 285.199 83.144 284.441 83.144C283.663 83.144 282.959 82.952 282.329 82.568C281.7 82.184 281.204 81.6453 280.841 80.952C280.479 80.2587 280.297 79.4693 280.297 78.584ZM287.721 78.6C287.721 77.9387 287.588 77.3627 287.321 76.872C287.055 76.3813 286.692 76.008 286.233 75.752C285.785 75.4853 285.289 75.352 284.745 75.352C284.201 75.352 283.705 75.48 283.257 75.736C282.809 75.992 282.452 76.3653 282.185 76.856C281.919 77.3467 281.785 77.9227 281.785 78.584C281.785 79.256 281.919 79.8427 282.185 80.344C282.452 80.8347 282.809 81.2133 283.257 81.48C283.705 81.736 284.201 81.864 284.745 81.864C285.289 81.864 285.785 81.736 286.233 81.48C286.692 81.2133 287.055 80.8347 287.321 80.344C287.588 79.8427 287.721 79.2613 287.721 78.6ZM295.926 74.072C296.993 74.072 297.857 74.3973 298.518 75.048C299.179 75.688 299.51 76.616 299.51 77.832V83H298.07V78.04C298.07 77.1653 297.851 76.4987 297.414 76.04C296.977 75.5707 296.379 75.336 295.622 75.336C294.854 75.336 294.241 75.576 293.782 76.056C293.334 76.536 293.11 77.2347 293.11 78.152V83H291.654V74.232H293.11V75.48C293.398 75.032 293.787 74.6853 294.278 74.44C294.779 74.1947 295.329 74.072 295.926 74.072ZM309.722 75.432H307.882V83H306.426V75.432H305.29V74.232H306.426V73.608C306.426 72.6267 306.677 71.912 307.178 71.464C307.69 71.0053 308.506 70.776 309.626 70.776V71.992C308.986 71.992 308.533 72.12 308.266 72.376C308.01 72.6213 307.882 73.032 307.882 73.608V74.232H309.722V75.432ZM315.244 83.144C314.422 83.144 313.676 82.9573 313.004 82.584C312.342 82.2107 311.82 81.6827 311.436 81C311.062 80.3067 310.876 79.5067 310.876 78.6C310.876 77.704 311.068 76.9147 311.452 76.232C311.846 75.5387 312.38 75.0107 313.052 74.648C313.724 74.2747 314.476 74.088 315.308 74.088C316.14 74.088 316.892 74.2747 317.564 74.648C318.236 75.0107 318.764 75.5333 319.148 76.216C319.542 76.8987 319.74 77.6933 319.74 78.6C319.74 79.5067 319.537 80.3067 319.132 81C318.737 81.6827 318.198 82.2107 317.516 82.584C316.833 82.9573 316.076 83.144 315.244 83.144ZM315.244 81.864C315.766 81.864 316.257 81.7413 316.716 81.496C317.174 81.2507 317.542 80.8827 317.82 80.392C318.108 79.9013 318.252 79.304 318.252 78.6C318.252 77.896 318.113 77.2987 317.836 76.808C317.558 76.3173 317.196 75.9547 316.748 75.72C316.3 75.4747 315.814 75.352 315.292 75.352C314.758 75.352 314.268 75.4747 313.82 75.72C313.382 75.9547 313.03 76.3173 312.764 76.808C312.497 77.2987 312.364 77.896 312.364 78.6C312.364 79.3147 312.492 79.9173 312.748 80.408C313.014 80.8987 313.366 81.2667 313.804 81.512C314.241 81.7467 314.721 81.864 315.244 81.864ZM321.11 78.6C321.11 77.6933 321.291 76.904 321.654 76.232C322.017 75.5493 322.518 75.0213 323.158 74.648C323.809 74.2747 324.55 74.088 325.382 74.088C326.459 74.088 327.345 74.3493 328.038 74.872C328.742 75.3947 329.206 76.12 329.43 77.048H327.862C327.713 76.5147 327.419 76.0933 326.982 75.784C326.555 75.4747 326.022 75.32 325.382 75.32C324.55 75.32 323.878 75.608 323.366 76.184C322.854 76.7493 322.598 77.5547 322.598 78.6C322.598 79.656 322.854 80.472 323.366 81.048C323.878 81.624 324.55 81.912 325.382 81.912C326.022 81.912 326.555 81.7627 326.982 81.464C327.409 81.1653 327.702 80.7387 327.862 80.184H329.43C329.195 81.08 328.726 81.8 328.022 82.344C327.318 82.8773 326.438 83.144 325.382 83.144C324.55 83.144 323.809 82.9573 323.158 82.584C322.518 82.2107 322.017 81.6827 321.654 81C321.291 80.3173 321.11 79.5173 321.11 78.6ZM339.149 74.232V83H337.693V81.704C337.415 82.152 337.026 82.504 336.525 82.76C336.034 83.0053 335.49 83.128 334.893 83.128C334.21 83.128 333.597 82.9893 333.053 82.712C332.509 82.424 332.077 81.9973 331.757 81.432C331.447 80.8667 331.293 80.1787 331.293 79.368V74.232H332.733V79.176C332.733 80.04 332.951 80.7067 333.389 81.176C333.826 81.6347 334.423 81.864 335.181 81.864C335.959 81.864 336.573 81.624 337.021 81.144C337.469 80.664 337.693 79.9653 337.693 79.048V74.232H339.149ZM344.711 83.144C344.039 83.144 343.436 83.032 342.903 82.808C342.37 82.5733 341.948 82.2533 341.639 81.848C341.33 81.432 341.159 80.9573 341.127 80.424H342.631C342.674 80.8613 342.876 81.2187 343.239 81.496C343.612 81.7733 344.098 81.912 344.695 81.912C345.25 81.912 345.687 81.7893 346.007 81.544C346.327 81.2987 346.487 80.9893 346.487 80.616C346.487 80.232 346.316 79.9493 345.975 79.768C345.634 79.576 345.106 79.3893 344.391 79.208C343.74 79.0373 343.207 78.8667 342.791 78.696C342.386 78.5147 342.034 78.2533 341.735 77.912C341.447 77.56 341.303 77.1013 341.303 76.536C341.303 76.088 341.436 75.6773 341.703 75.304C341.97 74.9307 342.348 74.6373 342.839 74.424C343.33 74.2 343.89 74.088 344.519 74.088C345.49 74.088 346.274 74.3333 346.871 74.824C347.468 75.3147 347.788 75.9867 347.831 76.84H346.375C346.343 76.3813 346.156 76.0133 345.815 75.736C345.484 75.4587 345.036 75.32 344.471 75.32C343.948 75.32 343.532 75.432 343.223 75.656C342.914 75.88 342.759 76.1733 342.759 76.536C342.759 76.824 342.85 77.064 343.031 77.256C343.223 77.4373 343.458 77.5867 343.735 77.704C344.023 77.8107 344.418 77.9333 344.919 78.072C345.548 78.2427 346.06 78.4133 346.455 78.584C346.85 78.744 347.186 78.9893 347.463 79.32C347.751 79.6507 347.9 80.0827 347.911 80.616C347.911 81.096 347.778 81.528 347.511 81.912C347.244 82.296 346.866 82.6 346.375 82.824C345.895 83.0373 345.34 83.144 344.711 83.144ZM30.056 107.144C29.2347 107.144 28.488 106.957 27.816 106.584C27.1547 106.211 26.632 105.683 26.248 105C25.8747 104.307 25.688 103.507 25.688 102.6C25.688 101.704 25.88 100.915 26.264 100.232C26.6587 99.5387 27.192 99.0107 27.864 98.648C28.536 98.2747 29.288 98.088 30.12 98.088C30.952 98.088 31.704 98.2747 32.376 98.648C33.048 99.0107 33.576 99.5333 33.96 100.216C34.3547 100.899 34.552 101.693 34.552 102.6C34.552 103.507 34.3493 104.307 33.944 105C33.5493 105.683 33.0107 106.211 32.328 106.584C31.6453 106.957 30.888 107.144 30.056 107.144ZM30.056 105.864C30.5787 105.864 31.0693 105.741 31.528 105.496C31.9867 105.251 32.3547 104.883 32.632 104.392C32.92 103.901 33.064 103.304 33.064 102.6C33.064 101.896 32.9253 101.299 32.648 100.808C32.3707 100.317 32.008 99.9547 31.56 99.72C31.112 99.4747 30.6267 99.352 30.104 99.352C29.5707 99.352 29.08 99.4747 28.632 99.72C28.1947 99.9547 27.8427 100.317 27.576 100.808C27.3093 101.299 27.176 101.896 27.176 102.6C27.176 103.315 27.304 103.917 27.56 104.408C27.8267 104.899 28.1787 105.267 28.616 105.512C29.0533 105.747 29.5333 105.864 30.056 105.864ZM40.7384 98.072C41.805 98.072 42.669 98.3973 43.3304 99.048C43.9917 99.688 44.3224 100.616 44.3224 101.832V107H42.8824V102.04C42.8824 101.165 42.6637 100.499 42.2264 100.04C41.789 99.5707 41.1917 99.336 40.4344 99.336C39.6664 99.336 39.053 99.576 38.5944 100.056C38.1464 100.536 37.9224 101.235 37.9224 102.152V107H36.4664V98.232H37.9224V99.48C38.2104 99.032 38.5997 98.6853 39.0904 98.44C39.5917 98.1947 40.141 98.072 40.7384 98.072ZM61.5104 98.072C62.193 98.072 62.801 98.216 63.3344 98.504C63.8677 98.7813 64.289 99.2027 64.5984 99.768C64.9077 100.333 65.0624 101.021 65.0624 101.832V107H63.6224V102.04C63.6224 101.165 63.4037 100.499 62.9664 100.04C62.5397 99.5707 61.9584 99.336 61.2224 99.336C60.465 99.336 59.8624 99.5813 59.4144 100.072C58.9664 100.552 58.7424 101.251 58.7424 102.168V107H57.3024V102.04C57.3024 101.165 57.0837 100.499 56.6464 100.04C56.2197 99.5707 55.6384 99.336 54.9024 99.336C54.145 99.336 53.5424 99.5813 53.0944 100.072C52.6464 100.552 52.4224 101.251 52.4224 102.168V107H50.9664V98.232H52.4224V99.496C52.7104 99.0373 53.0944 98.6853 53.5744 98.44C54.065 98.1947 54.6037 98.072 55.1904 98.072C55.9264 98.072 56.577 98.2373 57.1424 98.568C57.7077 98.8987 58.129 99.384 58.4064 100.024C58.6517 99.4053 59.057 98.9253 59.6224 98.584C60.1877 98.2427 60.817 98.072 61.5104 98.072ZM66.9068 102.584C66.9068 101.688 67.0881 100.904 67.4508 100.232C67.8134 99.5493 68.3094 99.0213 68.9388 98.648C69.5788 98.2747 70.2881 98.088 71.0668 98.088C71.8348 98.088 72.5014 98.2533 73.0668 98.584C73.6321 98.9147 74.0534 99.3307 74.3308 99.832V98.232H75.8028V107H74.3308V105.368C74.0428 105.88 73.6108 106.307 73.0348 106.648C72.4694 106.979 71.8081 107.144 71.0508 107.144C70.2721 107.144 69.5681 106.952 68.9388 106.568C68.3094 106.184 67.8134 105.645 67.4508 104.952C67.0881 104.259 66.9068 103.469 66.9068 102.584ZM74.3308 102.6C74.3308 101.939 74.1974 101.363 73.9308 100.872C73.6641 100.381 73.3014 100.008 72.8428 99.752C72.3948 99.4853 71.8988 99.352 71.3548 99.352C70.8108 99.352 70.3148 99.48 69.8668 99.736C69.4188 99.992 69.0614 100.365 68.7948 100.856C68.5281 101.347 68.3948 101.923 68.3948 102.584C68.3948 103.256 68.5281 103.843 68.7948 104.344C69.0614 104.835 69.4188 105.213 69.8668 105.48C70.3148 105.736 70.8108 105.864 71.3548 105.864C71.8988 105.864 72.3948 105.736 72.8428 105.48C73.3014 105.213 73.6641 104.835 73.9308 104.344C74.1974 103.843 74.3308 103.261 74.3308 102.6ZM82.5353 98.072C83.6019 98.072 84.4659 98.3973 85.1273 99.048C85.7886 99.688 86.1193 100.616 86.1193 101.832V107H84.6793V102.04C84.6793 101.165 84.4606 100.499 84.0233 100.04C83.5859 99.5707 82.9886 99.336 82.2313 99.336C81.4633 99.336 80.8499 99.576 80.3913 100.056C79.9433 100.536 79.7193 101.235 79.7193 102.152V107H78.2633V98.232H79.7193V99.48C80.0073 99.032 80.3966 98.6853 80.8873 98.44C81.3886 98.1947 81.9379 98.072 82.5353 98.072ZM87.9536 102.584C87.9536 101.688 88.135 100.904 88.4976 100.232C88.8603 99.5493 89.3563 99.0213 89.9856 98.648C90.6256 98.2747 91.335 98.088 92.1136 98.088C92.8816 98.088 93.5483 98.2533 94.1136 98.584C94.679 98.9147 95.1003 99.3307 95.3776 99.832V98.232H96.8496V107H95.3776V105.368C95.0896 105.88 94.6576 106.307 94.0816 106.648C93.5163 106.979 92.855 107.144 92.0976 107.144C91.319 107.144 90.615 106.952 89.9856 106.568C89.3563 106.184 88.8603 105.645 88.4976 104.952C88.135 104.259 87.9536 103.469 87.9536 102.584ZM95.3776 102.6C95.3776 101.939 95.2443 101.363 94.9776 100.872C94.711 100.381 94.3483 100.008 93.8896 99.752C93.4416 99.4853 92.9456 99.352 92.4016 99.352C91.8576 99.352 91.3616 99.48 90.9136 99.736C90.4656 99.992 90.1083 100.365 89.8416 100.856C89.575 101.347 89.4416 101.923 89.4416 102.584C89.4416 103.256 89.575 103.843 89.8416 104.344C90.1083 104.835 90.4656 105.213 90.9136 105.48C91.3616 105.736 91.8576 105.864 92.4016 105.864C92.9456 105.864 93.4416 105.736 93.8896 105.48C94.3483 105.213 94.711 104.835 94.9776 104.344C95.2443 103.843 95.3776 103.261 95.3776 102.6ZM102.926 98.088C103.683 98.088 104.345 98.2533 104.91 98.584C105.486 98.9147 105.913 99.3307 106.19 99.832V98.232H107.662V107.192C107.662 107.992 107.491 108.701 107.15 109.32C106.809 109.949 106.318 110.44 105.678 110.792C105.049 111.144 104.313 111.32 103.47 111.32C102.318 111.32 101.358 111.048 100.59 110.504C99.8221 109.96 99.3688 109.219 99.2301 108.28H100.67C100.83 108.813 101.161 109.24 101.662 109.56C102.163 109.891 102.766 110.056 103.47 110.056C104.27 110.056 104.921 109.805 105.422 109.304C105.934 108.803 106.19 108.099 106.19 107.192V105.352C105.902 105.864 105.475 106.291 104.91 106.632C104.345 106.973 103.683 107.144 102.926 107.144C102.147 107.144 101.438 106.952 100.798 106.568C100.169 106.184 99.6728 105.645 99.3101 104.952C98.9475 104.259 98.7661 103.469 98.7661 102.584C98.7661 101.688 98.9475 100.904 99.3101 100.232C99.6728 99.5493 100.169 99.0213 100.798 98.648C101.438 98.2747 102.147 98.088 102.926 98.088ZM106.19 102.6C106.19 101.939 106.057 101.363 105.79 100.872C105.523 100.381 105.161 100.008 104.702 99.752C104.254 99.4853 103.758 99.352 103.214 99.352C102.67 99.352 102.174 99.48 101.726 99.736C101.278 99.992 100.921 100.365 100.654 100.856C100.387 101.347 100.254 101.923 100.254 102.584C100.254 103.256 100.387 103.843 100.654 104.344C100.921 104.835 101.278 105.213 101.726 105.48C102.174 105.736 102.67 105.864 103.214 105.864C103.758 105.864 104.254 105.736 104.702 105.48C105.161 105.213 105.523 104.835 105.79 104.344C106.057 103.843 106.19 103.261 106.19 102.6ZM110.875 96.808C110.597 96.808 110.363 96.712 110.171 96.52C109.979 96.328 109.883 96.0933 109.883 95.816C109.883 95.5387 109.979 95.304 110.171 95.112C110.363 94.92 110.597 94.824 110.875 94.824C111.141 94.824 111.365 94.92 111.547 95.112C111.739 95.304 111.835 95.5387 111.835 95.816C111.835 96.0933 111.739 96.328 111.547 96.52C111.365 96.712 111.141 96.808 110.875 96.808ZM111.579 98.232V107H110.123V98.232H111.579ZM118.332 98.072C119.399 98.072 120.263 98.3973 120.924 99.048C121.585 99.688 121.916 100.616 121.916 101.832V107H120.476V102.04C120.476 101.165 120.257 100.499 119.82 100.04C119.383 99.5707 118.785 99.336 118.028 99.336C117.26 99.336 116.647 99.576 116.188 100.056C115.74 100.536 115.516 101.235 115.516 102.152V107H114.06V98.232H115.516V99.48C115.804 99.032 116.193 98.6853 116.684 98.44C117.185 98.1947 117.735 98.072 118.332 98.072ZM127.911 98.088C128.668 98.088 129.329 98.2533 129.895 98.584C130.471 98.9147 130.897 99.3307 131.175 99.832V98.232H132.647V107.192C132.647 107.992 132.476 108.701 132.135 109.32C131.793 109.949 131.303 110.44 130.663 110.792C130.033 111.144 129.297 111.32 128.455 111.32C127.303 111.32 126.343 111.048 125.575 110.504C124.807 109.96 124.353 109.219 124.215 108.28H125.655C125.815 108.813 126.145 109.24 126.647 109.56C127.148 109.891 127.751 110.056 128.455 110.056C129.255 110.056 129.905 109.805 130.407 109.304C130.919 108.803 131.175 108.099 131.175 107.192V105.352C130.887 105.864 130.46 106.291 129.895 106.632C129.329 106.973 128.668 107.144 127.911 107.144C127.132 107.144 126.423 106.952 125.783 106.568C125.153 106.184 124.657 105.645 124.295 104.952C123.932 104.259 123.751 103.469 123.751 102.584C123.751 101.688 123.932 100.904 124.295 100.232C124.657 99.5493 125.153 99.0213 125.783 98.648C126.423 98.2747 127.132 98.088 127.911 98.088ZM131.175 102.6C131.175 101.939 131.041 101.363 130.775 100.872C130.508 100.381 130.145 100.008 129.687 99.752C129.239 99.4853 128.743 99.352 128.199 99.352C127.655 99.352 127.159 99.48 126.711 99.736C126.263 99.992 125.905 100.365 125.639 100.856C125.372 101.347 125.239 101.923 125.239 102.584C125.239 103.256 125.372 103.843 125.639 104.344C125.905 104.835 126.263 105.213 126.711 105.48C127.159 105.736 127.655 105.864 128.199 105.864C128.743 105.864 129.239 105.736 129.687 105.48C130.145 105.213 130.508 104.835 130.775 104.344C131.041 103.843 131.175 103.261 131.175 102.6ZM146.925 98.232L141.645 111.128H140.141L141.869 106.904L138.333 98.232H139.949L142.701 105.336L145.421 98.232H146.925ZM152.212 107.144C151.391 107.144 150.644 106.957 149.972 106.584C149.311 106.211 148.788 105.683 148.404 105C148.031 104.307 147.844 103.507 147.844 102.6C147.844 101.704 148.036 100.915 148.42 100.232C148.815 99.5387 149.348 99.0107 150.02 98.648C150.692 98.2747 151.444 98.088 152.276 98.088C153.108 98.088 153.86 98.2747 154.532 98.648C155.204 99.0107 155.732 99.5333 156.116 100.216C156.511 100.899 156.708 101.693 156.708 102.6C156.708 103.507 156.506 104.307 156.1 105C155.706 105.683 155.167 106.211 154.484 106.584C153.802 106.957 153.044 107.144 152.212 107.144ZM152.212 105.864C152.735 105.864 153.226 105.741 153.684 105.496C154.143 105.251 154.511 104.883 154.788 104.392C155.076 103.901 155.22 103.304 155.22 102.6C155.22 101.896 155.082 101.299 154.804 100.808C154.527 100.317 154.164 99.9547 153.716 99.72C153.268 99.4747 152.783 99.352 152.26 99.352C151.727 99.352 151.236 99.4747 150.788 99.72C150.351 99.9547 149.999 100.317 149.732 100.808C149.466 101.299 149.332 101.896 149.332 102.6C149.332 103.315 149.46 103.917 149.716 104.408C149.983 104.899 150.335 105.267 150.772 105.512C151.21 105.747 151.69 105.864 152.212 105.864ZM166.399 98.232V107H164.943V105.704C164.665 106.152 164.276 106.504 163.775 106.76C163.284 107.005 162.74 107.128 162.143 107.128C161.46 107.128 160.847 106.989 160.303 106.712C159.759 106.424 159.327 105.997 159.007 105.432C158.697 104.867 158.543 104.179 158.543 103.368V98.232H159.983V103.176C159.983 104.04 160.201 104.707 160.639 105.176C161.076 105.635 161.673 105.864 162.431 105.864C163.209 105.864 163.823 105.624 164.271 105.144C164.719 104.664 164.943 103.965 164.943 103.048V98.232H166.399ZM170.313 99.656C170.569 99.1547 170.932 98.7653 171.401 98.488C171.881 98.2107 172.462 98.072 173.145 98.072V99.576H172.761C171.129 99.576 170.313 100.461 170.313 102.232V107H168.857V98.232H170.313V99.656ZM182.195 107.144C181.523 107.144 180.921 107.032 180.387 106.808C179.854 106.573 179.433 106.253 179.123 105.848C178.814 105.432 178.643 104.957 178.611 104.424H180.115C180.158 104.861 180.361 105.219 180.723 105.496C181.097 105.773 181.582 105.912 182.179 105.912C182.734 105.912 183.171 105.789 183.491 105.544C183.811 105.299 183.971 104.989 183.971 104.616C183.971 104.232 183.801 103.949 183.459 103.768C183.118 103.576 182.59 103.389 181.875 103.208C181.225 103.037 180.691 102.867 180.275 102.696C179.87 102.515 179.518 102.253 179.219 101.912C178.931 101.56 178.787 101.101 178.787 100.536C178.787 100.088 178.921 99.6773 179.187 99.304C179.454 98.9307 179.833 98.6373 180.323 98.424C180.814 98.2 181.374 98.088 182.003 98.088C182.974 98.088 183.758 98.3333 184.355 98.824C184.953 99.3147 185.273 99.9867 185.315 100.84H183.859C183.827 100.381 183.641 100.013 183.299 99.736C182.969 99.4587 182.521 99.32 181.955 99.32C181.433 99.32 181.017 99.432 180.707 99.656C180.398 99.88 180.243 100.173 180.243 100.536C180.243 100.824 180.334 101.064 180.515 101.256C180.707 101.437 180.942 101.587 181.219 101.704C181.507 101.811 181.902 101.933 182.403 102.072C183.033 102.243 183.545 102.413 183.939 102.584C184.334 102.744 184.67 102.989 184.947 103.32C185.235 103.651 185.385 104.083 185.395 104.616C185.395 105.096 185.262 105.528 184.995 105.912C184.729 106.296 184.35 106.6 183.859 106.824C183.379 107.037 182.825 107.144 182.195 107.144ZM189.227 99.432V104.6C189.227 105.027 189.317 105.331 189.499 105.512C189.68 105.683 189.995 105.768 190.443 105.768H191.515V107H190.203C189.392 107 188.784 106.813 188.379 106.44C187.973 106.067 187.771 105.453 187.771 104.6V99.432H186.635V98.232H187.771V96.024H189.227V98.232H191.515V99.432H189.227ZM192.735 102.584C192.735 101.688 192.916 100.904 193.279 100.232C193.642 99.5493 194.138 99.0213 194.767 98.648C195.407 98.2747 196.116 98.088 196.895 98.088C197.663 98.088 198.33 98.2533 198.895 98.584C199.46 98.9147 199.882 99.3307 200.159 99.832V98.232H201.631V107H200.159V105.368C199.871 105.88 199.439 106.307 198.863 106.648C198.298 106.979 197.636 107.144 196.879 107.144C196.1 107.144 195.396 106.952 194.767 106.568C194.138 106.184 193.642 105.645 193.279 104.952C192.916 104.259 192.735 103.469 192.735 102.584ZM200.159 102.6C200.159 101.939 200.026 101.363 199.759 100.872C199.492 100.381 199.13 100.008 198.671 99.752C198.223 99.4853 197.727 99.352 197.183 99.352C196.639 99.352 196.143 99.48 195.695 99.736C195.247 99.992 194.89 100.365 194.623 100.856C194.356 101.347 194.223 101.923 194.223 102.584C194.223 103.256 194.356 103.843 194.623 104.344C194.89 104.835 195.247 105.213 195.695 105.48C196.143 105.736 196.639 105.864 197.183 105.864C197.727 105.864 198.223 105.736 198.671 105.48C199.13 105.213 199.492 104.835 199.759 104.344C200.026 103.843 200.159 103.261 200.159 102.6ZM205.867 99.432V104.6C205.867 105.027 205.958 105.331 206.139 105.512C206.321 105.683 206.635 105.768 207.083 105.768H208.155V107H206.843C206.033 107 205.425 106.813 205.019 106.44C204.614 106.067 204.411 105.453 204.411 104.6V99.432H203.275V98.232H204.411V96.024H205.867V98.232H208.155V99.432H205.867ZM217.696 98.232V107H216.24V105.704C215.962 106.152 215.573 106.504 215.072 106.76C214.581 107.005 214.037 107.128 213.44 107.128C212.757 107.128 212.144 106.989 211.6 106.712C211.056 106.424 210.624 105.997 210.304 105.432C209.994 104.867 209.84 104.179 209.84 103.368V98.232H211.28V103.176C211.28 104.04 211.498 104.707 211.936 105.176C212.373 105.635 212.97 105.864 213.728 105.864C214.506 105.864 215.12 105.624 215.568 105.144C216.016 104.664 216.24 103.965 216.24 103.048V98.232H217.696ZM223.258 107.144C222.586 107.144 221.983 107.032 221.45 106.808C220.917 106.573 220.495 106.253 220.186 105.848C219.877 105.432 219.706 104.957 219.674 104.424H221.178C221.221 104.861 221.423 105.219 221.786 105.496C222.159 105.773 222.645 105.912 223.242 105.912C223.797 105.912 224.234 105.789 224.554 105.544C224.874 105.299 225.034 104.989 225.034 104.616C225.034 104.232 224.863 103.949 224.522 103.768C224.181 103.576 223.653 103.389 222.938 103.208C222.287 103.037 221.754 102.867 221.338 102.696C220.933 102.515 220.581 102.253 220.282 101.912C219.994 101.56 219.85 101.101 219.85 100.536C219.85 100.088 219.983 99.6773 220.25 99.304C220.517 98.9307 220.895 98.6373 221.386 98.424C221.877 98.2 222.437 98.088 223.066 98.088C224.037 98.088 224.821 98.3333 225.418 98.824C226.015 99.3147 226.335 99.9867 226.378 100.84H224.922C224.89 100.381 224.703 100.013 224.362 99.736C224.031 99.4587 223.583 99.32 223.018 99.32C222.495 99.32 222.079 99.432 221.77 99.656C221.461 99.88 221.306 100.173 221.306 100.536C221.306 100.824 221.397 101.064 221.578 101.256C221.77 101.437 222.005 101.587 222.282 101.704C222.57 101.811 222.965 101.933 223.466 102.072C224.095 102.243 224.607 102.413 225.002 102.584C225.397 102.744 225.733 102.989 226.01 103.32C226.298 103.651 226.447 104.083 226.458 104.616C226.458 105.096 226.325 105.528 226.058 105.912C225.791 106.296 225.413 106.6 224.922 106.824C224.442 107.037 223.887 107.144 223.258 107.144ZM228.977 107.096C228.7 107.096 228.465 107 228.273 106.808C228.081 106.616 227.985 106.381 227.985 106.104C227.985 105.827 228.081 105.592 228.273 105.4C228.465 105.208 228.7 105.112 228.977 105.112C229.244 105.112 229.468 105.208 229.649 105.4C229.841 105.592 229.937 105.827 229.937 106.104C229.937 106.381 229.841 106.616 229.649 106.808C229.468 107 229.244 107.096 228.977 107.096Z" fill="#4B3E65"/>
<g clip-path="url(#clip0_42_135)">
<path d="M10.3855 26.8659L0 29.1165L10.3855 31.367L12.9819 40.3692L16.0109 31.367L26.3965 29.1165L16.0109 26.8659L12.5491 16.7385L10.3855 26.8659Z" fill="#2C0958"/>
<path d="M54.07 34.4615L48.2 35.7743L54.07 37.0872L55.5376 42.3384L57.2497 37.0872L63.1197 35.7743L57.2497 34.4615L55.2929 28.5538L54.07 34.4615Z" fill="#2C0958"/>
<path d="M20.376 65.4066L17.2153 66.1568L20.376 66.907L21.1663 69.9077L22.0882 66.907L25.249 66.1568L22.0882 65.4066L21.0346 62.0308L20.376 65.4066Z" fill="#2C0958"/>
<path d="M4.96698 64.9846L0 66.2974L4.96698 67.6103L6.20872 72.8616L7.65742 67.6103L12.6244 66.2974L7.65742 64.9846L6.00176 59.0769L4.96698 64.9846Z" fill="#2C0958"/>
<path d="M32.0232 6.75165L25.25 8.25201L32.0232 9.75238L33.7165 15.7538L35.6919 9.75238L42.4651 8.25201L35.6919 6.75165L33.4342 0L32.0232 6.75165Z" fill="#2C0958"/>
<path d="M39.884 26.022L36.7231 26.7722L39.884 27.5224L40.6741 30.5231L41.596 27.5224L44.7568 26.7722L41.596 26.022L40.5425 22.6461L39.884 26.022Z" fill="#2C0958"/>
</g>
<defs>
<clipPath id="clip0_42_135">
<rect width="64" height="72.8615" fill="white"/>
</clipPath>
</defs>
</svg>
