<svg width="596" height="375" viewBox="0 0 596 375" fill="none" xmlns="http://www.w3.org/2000/svg">
<path d="M57.024 52.208C56.32 46.448 54.336 42.032 51.072 38.96C47.808 35.824 43.552 34.224 38.304 34.16C34.976 34.16 31.904 34.896 29.088 36.368C26.272 37.84 23.84 39.92 21.792 42.608C19.744 45.232 18.144 48.368 16.992 52.016C15.904 55.6 15.36 59.536 15.36 63.824C15.36 69.648 16.384 74.832 18.432 79.376C20.48 83.856 23.296 87.344 26.88 89.84C30.528 92.336 34.656 93.584 39.264 93.584C43.36 93.584 47.392 92.624 51.36 90.704C55.392 88.72 58.72 85.936 61.344 82.352L64.512 85.04C61.632 89.008 58.56 92.048 55.296 94.16C52.032 96.272 48.768 97.68 45.504 98.384C42.304 99.152 39.392 99.536 36.768 99.536C31.968 99.536 27.552 98.672 23.52 96.944C19.488 95.216 16 92.816 13.056 89.744C10.176 86.608 7.936 82.992 6.336 78.896C4.8 74.736 4.032 70.256 4.032 65.456C4.032 60.976 4.736 56.592 6.144 52.304C7.552 48.016 9.632 44.144 12.384 40.688C15.136 37.168 18.592 34.384 22.752 32.336C26.976 30.288 31.872 29.264 37.44 29.264C40.704 29.264 43.872 29.712 46.944 30.608C50.08 31.504 53.088 32.88 55.968 34.736L55.488 29.936H61.44V52.208H57.024ZM100.926 93.968C102.846 93.968 104.19 93.52 104.958 92.624C105.79 91.728 106.27 90.48 106.398 88.88C106.59 87.28 106.686 85.424 106.686 83.312L106.59 69.872C106.59 64.816 105.79 61.04 104.19 58.544C102.654 55.984 100.158 54.736 96.702 54.8C94.59 54.864 92.51 55.376 90.462 56.336C88.478 57.296 86.814 58.512 85.47 59.984V86.096C85.47 87.248 85.438 88.432 85.374 89.648C85.31 90.8 85.214 91.984 85.086 93.2C86.11 93.136 87.134 93.104 88.158 93.104C89.246 93.04 90.238 92.976 91.134 92.912V98H69.726V93.968C71.646 93.968 72.99 93.52 73.758 92.624C74.526 91.728 75.006 90.48 75.198 88.88C75.39 87.28 75.486 85.424 75.486 83.312V39.92C75.486 38.832 75.486 37.744 75.486 36.656C75.55 35.504 75.646 34.288 75.774 33.008C74.686 33.072 73.534 33.136 72.318 33.2C71.102 33.2 69.982 33.232 68.958 33.296V28.208C71.838 28.208 74.142 28.08 75.87 27.824C77.598 27.504 78.91 27.152 79.806 26.768C80.766 26.384 81.47 25.968 81.918 25.52H85.47V54.512C86.878 53.36 88.446 52.336 90.174 51.44C91.902 50.544 93.662 49.84 95.454 49.328C97.31 48.752 99.038 48.464 100.638 48.464C106.334 48.464 110.398 50.192 112.83 53.648C115.326 57.104 116.606 62.512 116.67 69.872V86.096C116.67 87.248 116.638 88.432 116.574 89.648C116.574 90.8 116.478 91.984 116.286 93.2C117.31 93.136 118.366 93.104 119.454 93.104C120.542 93.04 121.534 92.976 122.43 92.912V98H100.926V93.968ZM152.809 99.536C148.265 99.536 144.169 98.512 140.521 96.464C136.873 94.416 133.961 91.568 131.785 87.92C129.673 84.208 128.617 79.952 128.617 75.152C128.617 69.968 129.673 65.392 131.785 61.424C133.961 57.392 136.873 54.224 140.521 51.92C144.169 49.616 148.233 48.464 152.713 48.464C157.257 48.464 161.353 49.52 165.001 51.632C168.649 53.68 171.529 56.56 173.641 60.272C175.817 63.92 176.905 68.144 176.905 72.944C176.905 78 175.849 82.544 173.737 86.576C171.625 90.608 168.745 93.776 165.097 96.08C161.513 98.384 157.417 99.536 152.809 99.536ZM153.481 94.736C156.553 94.672 158.953 93.712 160.681 91.856C162.473 90 163.753 87.632 164.521 84.752C165.289 81.808 165.673 78.768 165.673 75.632C165.673 72.88 165.417 70.192 164.905 67.568C164.457 64.88 163.721 62.448 162.697 60.272C161.673 58.096 160.329 56.368 158.665 55.088C157.001 53.744 154.985 53.104 152.617 53.168C149.609 53.168 147.145 54.096 145.225 55.952C143.369 57.808 141.993 60.208 141.097 63.152C140.265 66.032 139.849 69.104 139.849 72.368C139.849 76.144 140.329 79.728 141.289 83.12C142.249 86.512 143.721 89.296 145.705 91.472C147.753 93.648 150.345 94.736 153.481 94.736ZM208.403 99.536C203.859 99.536 199.763 98.512 196.115 96.464C192.467 94.416 189.555 91.568 187.379 87.92C185.267 84.208 184.211 79.952 184.211 75.152C184.211 69.968 185.267 65.392 187.379 61.424C189.555 57.392 192.467 54.224 196.115 51.92C199.763 49.616 203.827 48.464 208.307 48.464C212.851 48.464 216.947 49.52 220.595 51.632C224.243 53.68 227.123 56.56 229.235 60.272C231.411 63.92 232.499 68.144 232.499 72.944C232.499 78 231.443 82.544 229.331 86.576C227.219 90.608 224.339 93.776 220.691 96.08C217.107 98.384 213.011 99.536 208.403 99.536ZM209.075 94.736C212.147 94.672 214.547 93.712 216.275 91.856C218.067 90 219.347 87.632 220.115 84.752C220.883 81.808 221.267 78.768 221.267 75.632C221.267 72.88 221.011 70.192 220.499 67.568C220.051 64.88 219.315 62.448 218.291 60.272C217.267 58.096 215.923 56.368 214.259 55.088C212.595 53.744 210.579 53.104 208.211 53.168C205.203 53.168 202.739 54.096 200.819 55.952C198.963 57.808 197.587 60.208 196.691 63.152C195.859 66.032 195.443 69.104 195.443 72.368C195.443 76.144 195.923 79.728 196.883 83.12C197.843 86.512 199.315 89.296 201.299 91.472C203.347 93.648 205.939 94.736 209.075 94.736ZM260.732 99.536C257.724 99.536 254.94 99.12 252.38 98.288C249.82 97.52 247.772 96.592 246.236 95.504L246.524 98.672H241.436L240.956 82.16H244.988C245.116 84.528 245.852 86.672 247.196 88.592C248.54 90.512 250.268 92.016 252.38 93.104C254.556 94.192 256.892 94.736 259.388 94.736C260.86 94.736 262.3 94.512 263.708 94.064C265.116 93.552 266.3 92.816 267.26 91.856C268.22 90.832 268.7 89.584 268.7 88.112C268.7 86.512 268.188 85.2 267.164 84.176C266.204 83.088 264.86 82.128 263.132 81.296C261.468 80.464 259.548 79.632 257.372 78.8C255.452 78.032 253.5 77.232 251.516 76.4C249.596 75.568 247.804 74.576 246.14 73.424C244.476 72.272 243.164 70.864 242.204 69.2C241.244 67.472 240.764 65.36 240.764 62.864C240.764 61.392 241.052 59.824 241.628 58.16C242.204 56.432 243.132 54.864 244.412 53.456C245.692 51.984 247.42 50.8 249.596 49.904C251.772 48.944 254.46 48.464 257.66 48.464C259.388 48.464 261.308 48.752 263.42 49.328C265.596 49.904 267.612 50.896 269.468 52.304L269.372 48.944H274.46V65.84H270.332C270.14 63.6 269.532 61.52 268.508 59.6C267.548 57.68 266.172 56.112 264.38 54.896C262.588 53.68 260.412 53.072 257.852 53.072C255.356 53.072 253.308 53.712 251.708 54.992C250.172 56.208 249.404 57.744 249.404 59.6C249.404 61.456 249.98 62.96 251.132 64.112C252.348 65.264 253.916 66.256 255.836 67.088C257.756 67.92 259.836 68.752 262.076 69.584C264.764 70.672 267.292 71.856 269.66 73.136C272.028 74.416 273.948 76.016 275.42 77.936C276.892 79.856 277.628 82.288 277.628 85.232C277.628 88.432 276.796 91.12 275.132 93.296C273.532 95.408 271.452 96.976 268.892 98C266.332 99.024 263.612 99.536 260.732 99.536ZM308.418 99.536C303.938 99.536 299.906 98.512 296.322 96.464C292.802 94.352 290.018 91.408 287.97 87.632C285.922 83.792 284.898 79.28 284.898 74.096C284.898 69.616 285.89 65.424 287.874 61.52C289.922 57.616 292.77 54.48 296.418 52.112C300.066 49.68 304.29 48.464 309.09 48.464C311.778 48.464 314.306 48.88 316.674 49.712C319.106 50.544 321.25 51.856 323.106 53.648C325.026 55.376 326.53 57.648 327.618 60.464C328.706 63.216 329.25 66.576 329.25 70.544L296.226 71.12C296.226 75.472 296.706 79.344 297.666 82.736C298.69 86.128 300.322 88.752 302.562 90.608C304.802 92.464 307.714 93.392 311.298 93.392C313.026 93.392 314.85 93.104 316.77 92.528C318.754 91.888 320.61 90.992 322.338 89.84C324.13 88.688 325.634 87.312 326.85 85.712L329.826 88.304C327.906 91.184 325.698 93.456 323.202 95.12C320.706 96.72 318.146 97.84 315.522 98.48C312.962 99.184 310.594 99.536 308.418 99.536ZM296.61 66.128H318.786C318.786 63.696 318.434 61.52 317.73 59.6C317.09 57.616 316.066 56.048 314.658 54.896C313.25 53.744 311.458 53.168 309.282 53.168C305.89 53.168 303.106 54.256 300.93 56.432C298.754 58.544 297.314 61.776 296.61 66.128ZM378.662 98V93.776C380.774 93.648 382.278 93.2 383.174 92.432C384.07 91.664 384.646 90.512 384.902 88.976C385.158 87.376 385.286 85.424 385.286 83.12L385.382 73.04L368.294 46.16C366.95 43.92 365.862 41.936 365.03 40.208C364.262 38.48 363.814 37.04 363.686 35.888C362.662 35.952 361.702 35.984 360.806 35.984C359.91 35.984 359.014 36.016 358.118 36.08V30.8H384.038V35.024C381.478 34.96 379.59 35.312 378.374 36.08C377.222 36.848 376.71 37.968 376.838 39.44C376.966 40.848 377.606 42.512 378.758 44.432L386.342 56.528C386.854 57.296 387.43 58.192 388.07 59.216C388.71 60.24 389.35 61.296 389.99 62.384C390.694 63.408 391.334 64.464 391.91 65.552H392.102C392.678 64.336 393.318 63.056 394.022 61.712C394.79 60.304 395.558 58.768 396.326 57.104L403.43 43.568C403.75 42.928 404.166 42.128 404.678 41.168C405.19 40.208 405.734 39.248 406.31 38.288C406.95 37.264 407.59 36.432 408.23 35.792C407.078 35.856 405.798 35.92 404.39 35.984C403.046 35.984 401.83 36.016 400.742 36.08V30.8H420.806V35.024C417.99 35.28 415.622 36.336 413.702 38.192C411.846 39.984 409.862 42.832 407.75 46.736C405.638 50.768 403.558 54.736 401.51 58.64C399.462 62.48 397.478 66.256 395.558 69.968C395.558 70.992 395.526 72.304 395.462 73.904C395.462 75.504 395.462 77.104 395.462 78.704C395.462 80.304 395.462 81.712 395.462 82.928C395.462 84.08 395.462 84.816 395.462 85.136C395.462 86.864 395.43 88.432 395.366 89.84C395.366 91.184 395.302 92.272 395.174 93.104C396.454 92.976 397.798 92.912 399.206 92.912C400.678 92.848 401.958 92.784 403.046 92.72V98H378.662ZM440.996 99.536C436.452 99.536 432.356 98.512 428.708 96.464C425.06 94.416 422.148 91.568 419.972 87.92C417.86 84.208 416.804 79.952 416.804 75.152C416.804 69.968 417.86 65.392 419.972 61.424C422.148 57.392 425.06 54.224 428.708 51.92C432.356 49.616 436.42 48.464 440.9 48.464C445.444 48.464 449.54 49.52 453.188 51.632C456.836 53.68 459.716 56.56 461.828 60.272C464.004 63.92 465.092 68.144 465.092 72.944C465.092 78 464.036 82.544 461.924 86.576C459.812 90.608 456.932 93.776 453.284 96.08C449.7 98.384 445.604 99.536 440.996 99.536ZM441.668 94.736C444.74 94.672 447.14 93.712 448.868 91.856C450.66 90 451.94 87.632 452.708 84.752C453.476 81.808 453.86 78.768 453.86 75.632C453.86 72.88 453.604 70.192 453.092 67.568C452.644 64.88 451.908 62.448 450.884 60.272C449.86 58.096 448.516 56.368 446.852 55.088C445.188 53.744 443.172 53.104 440.804 53.168C437.796 53.168 435.332 54.096 433.412 55.952C431.556 57.808 430.18 60.208 429.284 63.152C428.452 66.032 428.036 69.104 428.036 72.368C428.036 76.144 428.516 79.728 429.476 83.12C430.436 86.512 431.908 89.296 433.892 91.472C435.94 93.648 438.532 94.736 441.668 94.736ZM493.038 99.536C489.454 99.536 486.478 98.864 484.11 97.52C481.806 96.176 480.078 93.968 478.926 90.896C477.774 87.76 477.198 83.632 477.198 78.512V63.44C477.198 62.352 477.198 61.232 477.198 60.08C477.262 58.864 477.39 57.68 477.582 56.528C476.494 56.592 475.342 56.656 474.126 56.72C472.91 56.72 471.822 56.752 470.862 56.816V51.728H473.166C476.366 51.728 478.766 51.44 480.366 50.864C481.966 50.288 483.086 49.68 483.726 49.04H487.374V78.32C487.374 83.376 488.078 87.152 489.486 89.648C490.894 92.144 493.262 93.36 496.59 93.296C498.766 93.296 500.846 92.656 502.83 91.376C504.878 90.096 506.542 88.592 507.822 86.864V64.112C507.822 62.704 507.854 61.392 507.918 60.176C507.982 58.896 508.11 57.68 508.302 56.528C507.15 56.592 505.966 56.656 504.75 56.72C503.534 56.72 502.414 56.752 501.39 56.816V51.728H504.174C506.99 51.728 509.198 51.44 510.798 50.864C512.398 50.288 513.55 49.68 514.254 49.04H517.902L517.806 84.368C517.806 85.392 517.774 86.8 517.71 88.592C517.646 90.32 517.55 91.856 517.422 93.2C518.51 93.136 519.63 93.072 520.782 93.008C521.998 92.944 523.118 92.912 524.142 92.912V98H508.878C508.75 96.976 508.622 96.016 508.494 95.12C508.43 94.224 508.334 93.36 508.206 92.528C506.222 94.384 503.918 96.016 501.294 97.424C498.67 98.832 495.918 99.536 493.038 99.536ZM530.816 93.968C532.736 93.968 534.08 93.52 534.848 92.624C535.616 91.728 536.064 90.48 536.192 88.88C536.384 87.28 536.48 85.424 536.48 83.312V63.344C536.48 62.32 536.48 61.232 536.48 60.08C536.544 58.864 536.672 57.68 536.864 56.528C535.776 56.592 534.624 56.656 533.408 56.72C532.192 56.72 531.072 56.752 530.048 56.816V51.728H533.312C536 51.728 538.048 51.44 539.456 50.864C540.864 50.288 541.888 49.68 542.528 49.04H545.984C546.112 49.936 546.208 51.184 546.272 52.784C546.336 54.384 546.4 56.176 546.464 58.16C547.68 56.368 549.088 54.768 550.688 53.36C552.288 51.888 554.016 50.704 555.872 49.808C557.792 48.912 559.776 48.464 561.824 48.464C563.808 48.464 565.504 49.008 566.912 50.096C568.384 51.12 569.12 52.816 569.12 55.184C569.12 55.824 568.928 56.56 568.544 57.392C568.224 58.224 567.648 58.96 566.816 59.6C566.048 60.176 564.992 60.464 563.648 60.464C562.304 60.4 561.12 59.888 560.096 58.928C559.136 57.968 558.688 56.656 558.752 54.992C557.216 54.992 555.68 55.472 554.144 56.432C552.608 57.328 551.168 58.544 549.824 60.08C548.544 61.616 547.456 63.28 546.56 65.072V86.096C546.56 87.248 546.528 88.432 546.464 89.648C546.464 90.8 546.368 91.984 546.176 93.2C547.2 93.136 548.256 93.104 549.344 93.104C550.432 93.04 551.424 92.976 552.32 92.912V98H530.816V93.968ZM5.088 223V218.776C7.2 218.712 8.704 218.296 9.6 217.528C10.56 216.696 11.168 215.48 11.424 213.88C11.68 212.28 11.808 210.264 11.808 207.832V168.664C11.808 166.936 11.84 165.4 11.904 164.056C11.968 162.648 12.032 161.528 12.096 160.696C11.008 160.76 9.824 160.824 8.544 160.888C7.264 160.952 6.112 161.016 5.088 161.08V155.8C8.928 155.736 12.768 155.704 16.608 155.704C20.448 155.64 24.384 155.608 28.416 155.608C35.968 155.608 41.888 156.984 46.176 159.736C50.464 162.424 52.512 166.648 52.32 172.408C52.256 174.392 51.648 176.376 50.496 178.36C49.408 180.28 47.744 182.008 45.504 183.544C43.264 185.016 40.48 186.104 37.152 186.808V187C44 187.32 49.12 189.112 52.512 192.376C55.904 195.576 57.6 199.48 57.6 204.088C57.6 208.056 56.576 211.48 54.528 214.36C52.544 217.176 49.824 219.32 46.368 220.792C42.976 222.264 39.072 223 34.656 223H5.088ZM21.696 218.2C22.784 218.2 23.968 218.232 25.248 218.296C26.528 218.296 27.744 218.296 28.896 218.296C30.112 218.296 31.008 218.296 31.584 218.296C36.192 218.232 39.808 216.984 42.432 214.552C45.056 212.12 46.368 208.728 46.368 204.376C46.368 200.792 45.632 198.008 44.16 196.024C42.752 193.976 40.896 192.536 38.592 191.704C36.288 190.872 33.824 190.456 31.2 190.456C29.408 190.456 27.776 190.488 26.304 190.552C24.896 190.552 23.456 190.584 21.984 190.648V210.328C21.984 212.056 21.952 213.592 21.888 214.936C21.888 216.28 21.824 217.368 21.696 218.2ZM21.984 185.944L28.32 185.752C31.648 185.688 34.272 184.984 36.192 183.64C38.176 182.296 39.584 180.568 40.416 178.456C41.248 176.344 41.632 174.136 41.568 171.832C41.568 168.632 40.896 166.2 39.552 164.536C38.208 162.872 36.544 161.72 34.56 161.08C32.576 160.44 30.624 160.12 28.704 160.12C26.912 160.12 25.536 160.376 24.576 160.888C23.616 161.4 22.944 162.296 22.56 163.576C22.176 164.792 21.984 166.616 21.984 169.048V185.944ZM88.1055 224.536C83.6255 224.536 79.5935 223.512 76.0095 221.464C72.4895 219.352 69.7055 216.408 67.6575 212.632C65.6095 208.792 64.5855 204.28 64.5855 199.096C64.5855 194.616 65.5775 190.424 67.5615 186.52C69.6095 182.616 72.4575 179.48 76.1055 177.112C79.7535 174.68 83.9775 173.464 88.7775 173.464C91.4655 173.464 93.9935 173.88 96.3615 174.712C98.7935 175.544 100.938 176.856 102.794 178.648C104.714 180.376 106.218 182.648 107.306 185.464C108.394 188.216 108.938 191.576 108.938 195.544L75.9135 196.12C75.9135 200.472 76.3935 204.344 77.3535 207.736C78.3775 211.128 80.0095 213.752 82.2495 215.608C84.4895 217.464 87.4015 218.392 90.9855 218.392C92.7135 218.392 94.5375 218.104 96.4575 217.528C98.4415 216.888 100.298 215.992 102.026 214.84C103.818 213.688 105.322 212.312 106.538 210.712L109.514 213.304C107.594 216.184 105.386 218.456 102.89 220.12C100.394 221.72 97.8335 222.84 95.2095 223.48C92.6495 224.184 90.2815 224.536 88.1055 224.536ZM76.2975 191.128H98.4735C98.4735 188.696 98.1215 186.52 97.4175 184.6C96.7775 182.616 95.7535 181.048 94.3455 179.896C92.9375 178.744 91.1455 178.168 88.9695 178.168C85.5775 178.168 82.7935 179.256 80.6175 181.432C78.4415 183.544 77.0015 186.776 76.2975 191.128ZM137.451 224.536C134.443 224.536 131.659 224.12 129.099 223.288C126.539 222.52 124.491 221.592 122.955 220.504L123.243 223.672H118.155L117.675 207.16H121.707C121.835 209.528 122.571 211.672 123.915 213.592C125.259 215.512 126.987 217.016 129.099 218.104C131.275 219.192 133.611 219.736 136.107 219.736C137.579 219.736 139.019 219.512 140.427 219.064C141.835 218.552 143.019 217.816 143.979 216.856C144.939 215.832 145.419 214.584 145.419 213.112C145.419 211.512 144.907 210.2 143.883 209.176C142.923 208.088 141.579 207.128 139.851 206.296C138.187 205.464 136.267 204.632 134.091 203.8C132.171 203.032 130.219 202.232 128.235 201.4C126.315 200.568 124.523 199.576 122.859 198.424C121.195 197.272 119.883 195.864 118.923 194.2C117.963 192.472 117.483 190.36 117.483 187.864C117.483 186.392 117.771 184.824 118.347 183.16C118.923 181.432 119.851 179.864 121.131 178.456C122.411 176.984 124.139 175.8 126.315 174.904C128.491 173.944 131.179 173.464 134.379 173.464C136.107 173.464 138.027 173.752 140.139 174.328C142.315 174.904 144.331 175.896 146.187 177.304L146.091 173.944H151.179V190.84H147.051C146.859 188.6 146.251 186.52 145.227 184.6C144.267 182.68 142.891 181.112 141.099 179.896C139.307 178.68 137.131 178.072 134.571 178.072C132.075 178.072 130.027 178.712 128.427 179.992C126.891 181.208 126.123 182.744 126.123 184.6C126.123 186.456 126.699 187.96 127.851 189.112C129.067 190.264 130.635 191.256 132.555 192.088C134.475 192.92 136.555 193.752 138.795 194.584C141.483 195.672 144.011 196.856 146.379 198.136C148.747 199.416 150.667 201.016 152.139 202.936C153.611 204.856 154.347 207.288 154.347 210.232C154.347 213.432 153.515 216.12 151.851 218.296C150.251 220.408 148.171 221.976 145.611 223C143.051 224.024 140.331 224.536 137.451 224.536ZM180.433 224.536C178.833 224.536 177.233 224.312 175.633 223.864C174.033 223.48 172.529 222.68 171.121 221.464C169.777 220.184 168.721 218.36 167.953 215.992C167.185 213.624 166.801 210.488 166.801 206.584L166.993 180.376H159.889V175C161.617 174.936 163.377 174.296 165.169 173.08C166.961 171.864 168.529 170.232 169.873 168.184C171.217 166.136 172.145 163.928 172.657 161.56H177.169V175H191.953V179.992L177.169 180.184L176.977 205.816C176.977 208.248 177.169 210.392 177.553 212.248C178.001 214.04 178.705 215.448 179.665 216.472C180.689 217.432 182.065 217.912 183.793 217.912C185.265 217.912 186.769 217.464 188.305 216.568C189.905 215.672 191.409 214.2 192.817 212.152L196.081 215.032C194.545 217.272 193.009 219.032 191.473 220.312C189.937 221.592 188.465 222.52 187.057 223.096C185.649 223.736 184.369 224.12 183.217 224.248C182.065 224.44 181.137 224.536 180.433 224.536ZM55.2 301.536C55.136 297.888 54.72 294.848 53.952 292.416C53.184 289.984 51.904 288.16 50.112 286.944C48.384 285.728 45.984 285.152 42.912 285.216H36L35.904 335.136C35.904 336.864 35.872 338.432 35.808 339.84C35.808 341.184 35.744 342.272 35.616 343.104C36.832 342.976 38.144 342.912 39.552 342.912C41.024 342.848 42.336 342.784 43.488 342.72V348H19.104V343.776C21.216 343.648 22.72 343.2 23.616 342.432C24.512 341.664 25.088 340.512 25.344 338.976C25.6 337.376 25.728 335.424 25.728 333.12V285.312L17.664 285.408C13.76 285.408 10.912 286.72 9.12 289.344C7.328 291.968 6.432 296.032 6.432 301.536H1.92L2.496 280.8H59.136L59.712 301.536H55.2ZM84.0743 349.536C79.5943 349.536 75.5623 348.512 71.9783 346.464C68.4583 344.352 65.6743 341.408 63.6263 337.632C61.5783 333.792 60.5543 329.28 60.5543 324.096C60.5543 319.616 61.5463 315.424 63.5303 311.52C65.5783 307.616 68.4263 304.48 72.0743 302.112C75.7223 299.68 79.9463 298.464 84.7463 298.464C87.4343 298.464 89.9623 298.88 92.3303 299.712C94.7623 300.544 96.9063 301.856 98.7623 303.648C100.682 305.376 102.186 307.648 103.274 310.464C104.362 313.216 104.906 316.576 104.906 320.544L71.8823 321.12C71.8823 325.472 72.3623 329.344 73.3223 332.736C74.3463 336.128 75.9783 338.752 78.2183 340.608C80.4583 342.464 83.3703 343.392 86.9543 343.392C88.6823 343.392 90.5063 343.104 92.4263 342.528C94.4103 341.888 96.2663 340.992 97.9943 339.84C99.7863 338.688 101.29 337.312 102.506 335.712L105.482 338.304C103.562 341.184 101.354 343.456 98.8583 345.12C96.3623 346.72 93.8023 347.84 91.1783 348.48C88.6183 349.184 86.2503 349.536 84.0743 349.536ZM72.2663 316.128H94.4423C94.4423 313.696 94.0903 311.52 93.3863 309.6C92.7463 307.616 91.7223 306.048 90.3143 304.896C88.9063 303.744 87.1143 303.168 84.9383 303.168C81.5463 303.168 78.7623 304.256 76.5863 306.432C74.4103 308.544 72.9703 311.776 72.2663 316.128ZM141.198 348C141.07 346.976 140.974 346.08 140.91 345.312C140.846 344.544 140.75 343.744 140.622 342.912C138.446 345.088 136.11 346.752 133.614 347.904C131.118 348.992 128.526 349.536 125.838 349.536C121.23 349.536 117.742 348.416 115.374 346.176C113.07 343.872 111.918 341.024 111.918 337.632C111.918 334.688 112.782 332.128 114.51 329.952C116.238 327.776 118.51 326.016 121.326 324.672C124.142 323.264 127.214 322.24 130.542 321.6C133.87 320.896 137.134 320.544 140.334 320.544V314.88C140.334 312.832 140.142 310.944 139.758 309.216C139.374 307.424 138.574 305.984 137.358 304.896C136.206 303.744 134.382 303.168 131.886 303.168C130.222 303.104 128.558 303.424 126.894 304.128C125.23 304.768 123.95 305.856 123.054 307.392C123.566 307.904 123.886 308.512 124.014 309.216C124.206 309.856 124.302 310.464 124.302 311.04C124.302 311.936 123.918 312.96 123.15 314.112C122.382 315.2 121.07 315.712 119.214 315.648C117.678 315.648 116.494 315.136 115.662 314.112C114.894 313.024 114.51 311.776 114.51 310.368C114.51 308.064 115.342 306.016 117.006 304.224C118.734 302.432 121.07 301.024 124.014 300C126.958 298.976 130.254 298.464 133.902 298.464C139.406 298.464 143.502 299.904 146.19 302.784C148.942 305.664 150.318 310.208 150.318 316.416C150.318 318.72 150.318 320.928 150.318 323.04C150.318 325.152 150.286 327.264 150.222 329.376C150.222 331.488 150.222 333.728 150.222 336.096C150.222 337.056 150.19 338.144 150.126 339.36C150.062 340.576 149.966 341.856 149.838 343.2C150.926 343.136 152.046 343.072 153.198 343.008C154.35 342.944 155.438 342.912 156.462 342.912V348H141.198ZM140.334 324.96C138.286 325.088 136.174 325.376 133.998 325.824C131.886 326.272 129.966 326.944 128.238 327.84C126.51 328.736 125.102 329.888 124.014 331.296C122.99 332.704 122.478 334.4 122.478 336.384C122.606 338.56 123.31 340.16 124.59 341.184C125.934 342.208 127.502 342.72 129.294 342.72C131.534 342.72 133.518 342.304 135.246 341.472C136.974 340.576 138.67 339.36 140.334 337.824C140.27 337.12 140.238 336.416 140.238 335.712C140.238 334.944 140.238 334.144 140.238 333.312C140.238 332.736 140.238 331.68 140.238 330.144C140.302 328.544 140.334 326.816 140.334 324.96ZM185.795 349.536C181.507 349.536 177.571 348.576 173.987 346.656C170.403 344.672 167.523 341.856 165.347 338.208C163.235 334.56 162.179 330.144 162.179 324.96C162.179 321.504 162.787 318.208 164.003 315.072C165.219 311.872 166.915 309.024 169.091 306.528C171.331 304.032 173.955 302.08 176.963 300.672C180.035 299.2 183.427 298.464 187.139 298.464C190.915 298.464 194.147 299.04 196.835 300.192C199.523 301.344 201.571 302.848 202.979 304.704C204.451 306.56 205.187 308.576 205.187 310.752C205.187 312.288 204.739 313.632 203.843 314.784C202.947 315.936 201.667 316.512 200.003 316.512C198.147 316.576 196.835 316.032 196.067 314.88C195.299 313.664 194.915 312.544 194.915 311.52C194.915 310.944 195.011 310.304 195.203 309.6C195.395 308.832 195.747 308.16 196.259 307.584C195.747 306.24 194.915 305.248 193.763 304.608C192.611 303.968 191.427 303.552 190.211 303.36C188.995 303.168 187.971 303.072 187.139 303.072C183.235 303.136 179.939 304.832 177.251 308.16C174.627 311.424 173.315 316.16 173.315 322.368C173.315 326.336 173.891 329.888 175.043 333.024C176.259 336.16 178.019 338.656 180.323 340.512C182.627 342.368 185.379 343.328 188.579 343.392C191.459 343.392 194.243 342.656 196.931 341.184C199.619 339.648 201.795 337.728 203.459 335.424L206.531 338.112C204.675 340.992 202.531 343.264 200.099 344.928C197.731 346.592 195.299 347.776 192.803 348.48C190.371 349.184 188.035 349.536 185.795 349.536ZM243.332 343.968C245.252 343.968 246.596 343.52 247.364 342.624C248.196 341.728 248.676 340.48 248.804 338.88C248.996 337.28 249.092 335.424 249.092 333.312L248.996 319.872C248.996 314.816 248.196 311.04 246.596 308.544C245.06 305.984 242.564 304.736 239.108 304.8C236.996 304.864 234.916 305.376 232.868 306.336C230.884 307.296 229.22 308.512 227.876 309.984V336.096C227.876 337.248 227.844 338.432 227.78 339.648C227.716 340.8 227.62 341.984 227.492 343.2C228.516 343.136 229.54 343.104 230.564 343.104C231.652 343.04 232.644 342.976 233.54 342.912V348H212.132V343.968C214.052 343.968 215.396 343.52 216.164 342.624C216.932 341.728 217.412 340.48 217.604 338.88C217.796 337.28 217.892 335.424 217.892 333.312V289.92C217.892 288.832 217.892 287.744 217.892 286.656C217.956 285.504 218.052 284.288 218.18 283.008C217.092 283.072 215.94 283.136 214.724 283.2C213.508 283.2 212.388 283.232 211.364 283.296V278.208C214.244 278.208 216.548 278.08 218.276 277.824C220.004 277.504 221.316 277.152 222.212 276.768C223.172 276.384 223.876 275.968 224.324 275.52H227.876V304.512C229.284 303.36 230.852 302.336 232.58 301.44C234.308 300.544 236.068 299.84 237.86 299.328C239.716 298.752 241.444 298.464 243.044 298.464C248.74 298.464 252.804 300.192 255.236 303.648C257.732 307.104 259.012 312.512 259.076 319.872V336.096C259.076 337.248 259.044 338.432 258.98 339.648C258.98 340.8 258.884 341.984 258.692 343.2C259.716 343.136 260.772 343.104 261.86 343.104C262.948 343.04 263.94 342.976 264.836 342.912V348H243.332V343.968ZM294.543 349.536C290.063 349.536 286.031 348.512 282.447 346.464C278.927 344.352 276.143 341.408 274.095 337.632C272.047 333.792 271.023 329.28 271.023 324.096C271.023 319.616 272.015 315.424 273.999 311.52C276.047 307.616 278.895 304.48 282.543 302.112C286.191 299.68 290.415 298.464 295.215 298.464C297.903 298.464 300.431 298.88 302.799 299.712C305.231 300.544 307.375 301.856 309.231 303.648C311.151 305.376 312.655 307.648 313.743 310.464C314.831 313.216 315.375 316.576 315.375 320.544L282.351 321.12C282.351 325.472 282.831 329.344 283.791 332.736C284.815 336.128 286.447 338.752 288.687 340.608C290.927 342.464 293.839 343.392 297.423 343.392C299.151 343.392 300.975 343.104 302.895 342.528C304.879 341.888 306.735 340.992 308.463 339.84C310.255 338.688 311.759 337.312 312.975 335.712L315.951 338.304C314.031 341.184 311.823 343.456 309.327 345.12C306.831 346.72 304.271 347.84 301.647 348.48C299.087 349.184 296.719 349.536 294.543 349.536ZM282.735 316.128H304.911C304.911 313.696 304.559 311.52 303.855 309.6C303.215 307.616 302.191 306.048 300.783 304.896C299.375 303.744 297.583 303.168 295.407 303.168C292.015 303.168 289.231 304.256 287.055 306.432C284.879 308.544 283.439 311.776 282.735 316.128ZM323.441 343.968C325.361 343.968 326.705 343.52 327.473 342.624C328.241 341.728 328.689 340.48 328.817 338.88C329.009 337.28 329.105 335.424 329.105 333.312V313.344C329.105 312.32 329.105 311.232 329.105 310.08C329.169 308.864 329.297 307.68 329.489 306.528C328.401 306.592 327.249 306.656 326.033 306.72C324.817 306.72 323.697 306.752 322.673 306.816V301.728H325.937C328.625 301.728 330.673 301.44 332.081 300.864C333.489 300.288 334.513 299.68 335.153 299.04H338.609C338.737 299.936 338.833 301.184 338.897 302.784C338.961 304.384 339.025 306.176 339.089 308.16C340.305 306.368 341.713 304.768 343.312 303.36C344.913 301.888 346.641 300.704 348.497 299.808C350.417 298.912 352.401 298.464 354.449 298.464C356.433 298.464 358.129 299.008 359.537 300.096C361.009 301.12 361.745 302.816 361.745 305.184C361.745 305.824 361.553 306.56 361.169 307.392C360.849 308.224 360.273 308.96 359.441 309.6C358.673 310.176 357.617 310.464 356.273 310.464C354.929 310.4 353.745 309.888 352.721 308.928C351.761 307.968 351.313 306.656 351.377 304.992C349.841 304.992 348.305 305.472 346.769 306.432C345.233 307.328 343.793 308.544 342.449 310.08C341.169 311.616 340.081 313.28 339.185 315.072V336.096C339.185 337.248 339.153 338.432 339.089 339.648C339.089 340.8 338.993 341.984 338.801 343.2C339.825 343.136 340.881 343.104 341.969 343.104C343.057 343.04 344.049 342.976 344.945 342.912V348H323.441V343.968Z" fill="black"/>
<path d="M111 83.6L106 77.1H111" stroke="black"/>
<rect x="196.073" y="147.411" width="253.106" height="122.786" rx="16" transform="rotate(-8.83999 196.073 147.411)" fill="url(#paint0_linear_42_94)"/>
<path d="M250.29 235.174L249.661 230.997C251.731 230.556 253.151 229.89 253.923 228.997C254.695 228.104 255.093 226.879 255.118 225.322C255.133 223.702 254.969 221.753 254.627 219.474L253.222 209.492L232.327 185.453C230.664 183.438 229.293 181.637 228.214 180.052C227.197 178.458 226.54 177.1 226.242 175.98C225.239 176.196 224.294 176.37 223.408 176.504C222.522 176.637 221.641 176.802 220.764 176.998L219.979 171.777L245.611 167.922L246.239 172.099C243.698 172.416 241.883 173.045 240.795 173.986C239.77 174.916 239.43 176.1 239.776 177.537C240.112 178.91 240.992 180.46 242.417 182.188L251.716 193.021C252.336 193.704 253.039 194.505 253.824 195.422C254.61 196.339 255.4 197.289 256.194 198.269C257.043 199.177 257.833 200.126 258.564 201.116L258.754 201.088C259.143 199.8 259.585 198.439 260.081 197.005C260.632 195.498 261.163 193.865 261.674 192.106L266.686 177.664C266.907 176.983 267.2 176.13 267.563 175.105C267.927 174.079 268.322 173.049 268.749 172.014C269.229 170.906 269.739 169.988 270.276 169.26C269.147 169.495 267.89 169.748 266.507 170.021C265.178 170.221 263.981 170.434 262.914 170.659L262.129 165.437L281.97 162.453L282.598 166.63C279.851 167.302 277.667 168.699 276.044 170.82C274.475 172.868 272.937 175.979 271.429 180.154C269.941 184.455 268.474 188.688 267.029 192.853C265.575 196.955 264.175 200.984 262.828 204.941C262.981 205.953 263.144 207.256 263.319 208.847C263.557 210.429 263.795 212.012 264.033 213.594C264.271 215.176 264.48 216.568 264.661 217.771C264.832 218.91 264.942 219.638 264.989 219.954C265.246 221.663 265.448 223.218 265.594 224.62C265.794 225.949 265.893 227.035 265.89 227.877C267.136 227.56 268.456 227.296 269.848 227.087C271.294 226.805 272.551 226.551 273.617 226.326L274.402 231.547L250.29 235.174ZM312.159 227.422C307.665 228.097 303.463 227.694 299.551 226.211C295.638 224.729 292.335 222.346 289.641 219.062C287 215.705 285.323 211.654 284.609 206.907C283.838 201.781 284.202 197.099 285.7 192.861C287.252 188.55 289.66 184.984 292.925 182.163C296.19 179.342 300.037 177.598 304.468 176.932C308.961 176.256 313.169 176.691 317.09 178.237C321.002 179.72 324.278 182.139 326.919 185.496C329.613 188.78 331.318 192.795 332.032 197.541C332.784 202.541 332.415 207.192 330.926 211.493C329.438 215.794 327.061 219.355 323.796 222.176C320.595 224.988 316.715 226.736 312.159 227.422ZM312.109 222.575C315.138 222.055 317.368 220.749 318.801 218.656C320.297 216.554 321.21 214.022 321.542 211.06C321.863 208.035 321.791 204.971 321.324 201.87C320.915 199.149 320.262 196.529 319.365 194.01C318.523 191.419 317.433 189.123 316.097 187.124C314.761 185.124 313.174 183.615 311.339 182.597C309.493 181.515 307.404 181.182 305.072 181.598C302.098 182.045 299.799 183.329 298.177 185.45C296.617 187.562 295.614 190.14 295.165 193.184C294.771 196.156 294.817 199.256 295.302 202.483C295.864 206.217 296.871 209.69 298.325 212.902C299.779 216.113 301.649 218.647 303.934 220.504C306.283 222.351 309.008 223.041 312.109 222.575ZM369.351 243.575C363.782 244.412 359.193 244.455 355.585 243.704C352.05 243.006 349.376 241.79 347.562 240.057C345.82 238.377 344.788 236.461 344.464 234.309C344.207 232.6 344.349 230.961 344.89 229.391C345.493 227.812 346.374 226.353 347.532 225.014C348.699 223.738 350.058 222.66 351.608 221.779C349.288 221.416 347.464 220.688 346.134 219.593C344.795 218.436 343.983 216.907 343.697 215.009C343.392 212.983 343.884 210.871 345.171 208.671C346.521 206.462 348.663 204.78 351.596 203.627C348.558 202.79 346.003 201.297 343.933 199.149C341.862 197.001 340.548 194.287 339.99 191.005C339.355 187.217 339.805 183.752 341.338 180.609C342.935 177.456 345.165 174.856 348.028 172.807C350.955 170.749 354.127 169.463 357.544 168.949C359.506 168.654 361.574 168.634 363.748 168.889C365.913 169.082 367.936 169.619 369.816 170.501C370.236 168.561 370.901 166.746 371.812 165.055C372.723 163.365 373.871 161.963 375.257 160.848C376.705 159.724 378.284 159.034 379.993 158.777C381.828 158.501 383.292 158.766 384.384 159.572C385.476 160.379 386.141 161.573 386.379 163.156C386.456 163.662 386.393 164.319 386.19 165.126C386.042 165.86 385.658 166.532 385.038 167.143C384.418 167.754 383.506 168.15 382.304 168.331C381.291 168.484 380.326 168.305 379.408 167.796C378.544 167.214 377.945 166.463 377.613 165.542C376.322 165.995 375.333 166.953 374.647 168.415C374.015 169.805 373.672 171.183 373.619 172.55C375.483 173.758 377.011 175.308 378.201 177.2C379.446 179.019 380.239 181.068 380.582 183.346C381.125 186.954 380.624 190.297 379.081 193.377C377.601 196.447 375.43 199.007 372.567 201.056C369.704 203.104 366.468 204.4 362.861 204.942C361.785 205.104 360.763 205.193 359.795 205.209C358.817 205.162 357.758 205.224 356.619 205.396C354.594 205.7 352.988 206.427 351.802 207.577C350.679 208.716 350.375 209.927 350.892 211.208C351.418 212.553 352.885 213.271 355.293 213.362C357.701 213.452 361.135 213.26 365.594 212.783C370.495 212.24 374.763 212.213 378.396 212.702C382.083 213.118 385.028 214.196 387.231 215.936C389.498 217.666 390.893 220.272 391.416 223.752C391.807 226.347 391.426 228.767 390.275 231.011C389.187 233.245 387.541 235.208 385.336 236.899C383.204 238.644 380.734 240.083 377.928 241.217C375.121 242.351 372.262 243.137 369.351 243.575ZM369.506 238.795C374.632 238.024 378.445 236.479 380.944 234.162C383.506 231.835 384.607 229.469 384.245 227.064C383.94 225.039 383.006 223.561 381.443 222.631C379.888 221.765 377.808 221.269 375.2 221.143C372.665 221.072 369.716 221.256 366.352 221.698C364.687 221.818 362.996 221.976 361.278 222.169C359.559 222.363 357.953 222.443 356.46 222.409C355.156 223.64 354.203 225.046 353.599 226.625C353.058 228.195 352.876 229.776 353.05 231.367C353.488 234.279 355.201 236.416 358.189 237.778C361.177 239.141 364.949 239.48 369.506 238.795ZM362.475 200.438C364.626 200.114 366.318 199.31 367.548 198.024C368.832 196.666 369.685 195.017 370.105 193.077C370.579 191.064 370.649 188.95 370.316 186.735C369.926 184.14 369.179 181.761 368.077 179.597C366.975 177.432 365.591 175.764 363.926 174.59C362.261 173.417 360.29 173.002 358.011 173.344C354.91 173.811 352.691 175.406 351.353 178.132C350.016 180.857 349.609 183.96 350.132 187.441C350.551 190.226 351.307 192.668 352.4 194.769C353.546 196.797 354.974 198.33 356.683 199.367C358.392 200.405 360.323 200.761 362.475 200.438ZM423.842 209.07C423.563 208.077 423.335 207.205 423.157 206.455C422.98 205.705 422.766 204.928 422.516 204.125C420.687 206.6 418.625 208.593 416.328 210.103C414.022 211.55 411.539 212.474 408.881 212.874C404.325 213.559 400.709 212.97 398.034 211.107C395.413 209.172 393.85 206.527 393.346 203.173C392.908 200.261 393.381 197.601 394.766 195.192C396.152 192.784 398.137 190.705 400.721 188.957C403.297 187.146 406.182 185.677 409.378 184.549C412.564 183.358 415.74 182.524 418.904 182.048L418.061 176.447C417.757 174.422 417.286 172.583 416.649 170.932C416.003 169.217 414.998 167.912 413.634 167.017C412.323 166.049 410.434 165.751 407.965 166.122C406.31 166.306 404.713 166.87 403.172 167.814C401.621 168.694 400.518 169.96 399.86 171.613C400.442 172.043 400.849 172.596 401.081 173.274C401.366 173.878 401.551 174.465 401.637 175.034C401.77 175.92 401.542 176.99 400.954 178.244C400.357 179.434 399.135 180.135 397.291 180.348C395.772 180.576 394.525 180.246 393.55 179.357C392.628 178.396 392.063 177.219 391.854 175.826C391.511 173.548 392.029 171.399 393.408 169.379C394.85 167.35 396.951 165.61 399.71 164.16C402.469 162.71 405.652 161.713 409.259 161.17C414.702 160.352 418.967 161.167 422.053 163.615C425.203 166.053 427.24 170.342 428.163 176.481C428.506 178.759 428.834 180.943 429.148 183.031C429.462 185.12 429.745 187.213 429.996 189.311C430.31 191.4 430.643 193.615 430.995 195.956C431.138 196.906 431.268 197.986 431.386 199.198C431.503 200.41 431.599 201.69 431.672 203.039C432.738 202.813 433.836 202.584 434.966 202.349C436.096 202.114 437.167 201.921 438.179 201.769L438.936 206.8L423.842 209.07ZM419.561 186.415C417.555 186.846 415.509 187.445 413.424 188.212C411.402 188.969 409.603 189.919 408.028 191.062C406.452 192.205 405.231 193.554 404.365 195.108C403.561 196.653 403.307 198.406 403.602 200.368C404.053 202.501 404.987 203.978 406.405 204.8C407.886 205.613 409.513 205.886 411.285 205.62C413.5 205.286 415.4 204.58 416.985 203.5C418.561 202.357 420.057 200.902 421.474 199.136C421.306 198.449 421.17 197.758 421.065 197.062C420.951 196.302 420.832 195.511 420.708 194.688C420.622 194.119 420.465 193.075 420.237 191.556C420.062 189.964 419.837 188.25 419.561 186.415Z" fill="white"/>
<g clip-path="url(#clip0_42_94)">
<path d="M537.644 204.545C538.786 216.767 538.188 227.944 536.323 236.122C535.39 240.217 534.152 243.503 532.697 245.787C531.234 248.084 529.659 249.213 528.081 249.36C526.504 249.508 524.747 248.69 522.883 246.704C521.031 244.729 519.206 241.73 517.53 237.879C514.182 230.188 511.523 219.315 510.381 207.092C509.239 194.87 509.837 183.693 511.702 175.515C512.635 171.42 513.874 168.134 515.328 165.85C516.791 163.553 518.366 162.424 519.944 162.277C521.521 162.13 523.278 162.947 525.142 164.933C526.994 166.908 528.82 169.908 530.496 173.759C533.843 181.45 536.502 192.322 537.644 204.545Z" stroke="url(#paint1_linear_42_94)" stroke-width="2"/>
<path d="M525.677 218.373C512.957 219.562 501.333 219.067 492.833 217.33C488.577 216.46 485.163 215.29 482.794 213.904C480.4 212.503 479.27 211.004 479.133 209.54C478.996 208.075 479.829 206.393 481.922 204.573C483.993 202.771 487.132 200.989 491.153 199.346C499.183 196.064 510.514 193.424 523.235 192.235C535.956 191.047 547.58 191.541 556.079 193.278C560.335 194.148 563.75 195.318 566.118 196.705C568.513 198.106 569.642 199.604 569.779 201.069C569.916 202.534 569.084 204.215 566.99 206.036C564.919 207.837 561.781 209.62 557.76 211.263C549.729 214.545 538.398 217.184 525.677 218.373Z" stroke="url(#paint2_linear_42_94)" stroke-width="2"/>
<path d="M521.34 177.221L528.487 200.112L553.223 202.616L529.379 209.66L526.597 233.479L519.45 210.587L494.715 208.084L518.558 201.04L521.34 177.221Z" fill="url(#paint3_linear_42_94)" stroke="#F8F0FD" stroke-width="1.5"/>
</g>
<defs>
<linearGradient id="paint0_linear_42_94" x1="196.073" y1="208.803" x2="367.655" y2="101.932" gradientUnits="userSpaceOnUse">
<stop stop-color="#FF52AF"/>
<stop offset="1" stop-color="#9F53FF"/>
</linearGradient>
<linearGradient id="paint1_linear_42_94" x1="509.386" y1="207.185" x2="535.378" y2="201.234" gradientUnits="userSpaceOnUse">
<stop stop-color="#FF62B7"/>
<stop offset="1" stop-color="#9F53FF"/>
</linearGradient>
<linearGradient id="paint2_linear_42_94" x1="523.142" y1="191.24" x2="528.625" y2="216.319" gradientUnits="userSpaceOnUse">
<stop stop-color="#FF62B7"/>
<stop offset="1" stop-color="#9F53FF"/>
</linearGradient>
<linearGradient id="paint3_linear_42_94" x1="494.715" y1="208.084" x2="538.454" y2="184.701" gradientUnits="userSpaceOnUse">
<stop stop-color="#FF62B7"/>
<stop offset="1" stop-color="#9F53FF"/>
</linearGradient>
<clipPath id="clip0_42_94">
<rect width="95" height="91.3462" fill="white" transform="translate(472.957 164.718) rotate(-5.33867)"/>
</clipPath>
</defs>
</svg>
