<svg width="54" height="24" viewBox="0 0 54 24" fill="none" xmlns="http://www.w3.org/2000/svg">
<path d="M6.064 17V15.944C6.592 15.912 6.968 15.8 7.192 15.608C7.416 15.416 7.56 15.128 7.624 14.744C7.688 14.344 7.72 13.856 7.72 13.28L7.744 10.76L3.472 4.04C3.136 3.48 2.864 2.984 2.656 2.552C2.464 2.12 2.352 1.76 2.32 1.472C2.064 1.488 1.824 1.496 1.6 1.496C1.376 1.496 1.152 1.504 0.928 1.52V0.199999H7.408V1.256C6.768 1.24 6.296 1.328 5.992 1.52C5.704 1.712 5.576 1.992 5.608 2.36C5.64 2.712 5.8 3.128 6.088 3.608L7.984 6.632C8.112 6.824 8.256 7.048 8.416 7.304C8.576 7.56 8.736 7.824 8.896 8.096C9.072 8.352 9.232 8.616 9.376 8.888H9.424C9.568 8.584 9.728 8.264 9.904 7.928C10.096 7.576 10.288 7.192 10.48 6.776L12.256 3.392C12.336 3.232 12.44 3.032 12.568 2.792C12.696 2.552 12.832 2.312 12.976 2.072C13.136 1.816 13.296 1.608 13.456 1.448C13.168 1.464 12.848 1.48 12.496 1.496C12.16 1.496 11.856 1.504 11.584 1.52V0.199999H16.6V1.256C15.896 1.32 15.304 1.584 14.824 2.048C14.36 2.496 13.864 3.208 13.336 4.184C12.808 5.192 12.288 6.184 11.776 7.16C11.264 8.12 10.768 9.064 10.288 9.992C10.288 10.248 10.28 10.576 10.264 10.976C10.264 11.376 10.264 11.776 10.264 12.176C10.264 12.576 10.264 12.928 10.264 13.232C10.264 13.52 10.264 13.704 10.264 13.784C10.264 14.216 10.256 14.608 10.24 14.96C10.24 15.296 10.224 15.568 10.192 15.776C10.512 15.744 10.848 15.728 11.2 15.728C11.568 15.712 11.888 15.696 12.16 15.68V17H6.064ZM21.6475 17.384C20.5115 17.384 19.4875 17.128 18.5755 16.616C17.6635 16.104 16.9355 15.392 16.3915 14.48C15.8635 13.552 15.5995 12.488 15.5995 11.288C15.5995 9.992 15.8635 8.848 16.3915 7.856C16.9355 6.848 17.6635 6.056 18.5755 5.48C19.4875 4.904 20.5035 4.616 21.6235 4.616C22.7595 4.616 23.7835 4.88 24.6955 5.408C25.6075 5.92 26.3275 6.64 26.8555 7.568C27.3995 8.48 27.6715 9.536 27.6715 10.736C27.6715 12 27.4075 13.136 26.8795 14.144C26.3515 15.152 25.6315 15.944 24.7195 16.52C23.8235 17.096 22.7995 17.384 21.6475 17.384ZM21.8155 16.184C22.5835 16.168 23.1835 15.928 23.6155 15.464C24.0635 15 24.3835 14.408 24.5755 13.688C24.7675 12.952 24.8635 12.192 24.8635 11.408C24.8635 10.72 24.7995 10.048 24.6715 9.392C24.5595 8.72 24.3755 8.112 24.1195 7.568C23.8635 7.024 23.5275 6.592 23.1115 6.272C22.6955 5.936 22.1915 5.776 21.5995 5.792C20.8475 5.792 20.2315 6.024 19.7515 6.488C19.2875 6.952 18.9435 7.552 18.7195 8.288C18.5115 9.008 18.4075 9.776 18.4075 10.592C18.4075 11.536 18.5275 12.432 18.7675 13.28C19.0075 14.128 19.3755 14.824 19.8715 15.368C20.3835 15.912 21.0315 16.184 21.8155 16.184ZM35.1859 23.504C33.7779 23.504 32.6419 23.344 31.7779 23.024C30.9299 22.72 30.3139 22.32 29.9299 21.824C29.5619 21.344 29.3779 20.832 29.3779 20.288C29.3779 19.856 29.4739 19.456 29.6659 19.088C29.8739 18.72 30.1459 18.392 30.4819 18.104C30.8179 17.832 31.1939 17.616 31.6099 17.456C31.0499 17.28 30.6259 17.032 30.3379 16.712C30.0499 16.376 29.9059 15.968 29.9059 15.488C29.9059 14.976 30.1059 14.472 30.5059 13.976C30.9219 13.48 31.5139 13.144 32.2819 12.968C31.5619 12.648 30.9859 12.184 30.5539 11.576C30.1219 10.968 29.8979 10.248 29.8819 9.416C29.8659 8.456 30.1059 7.616 30.6019 6.896C31.1139 6.176 31.7619 5.616 32.5459 5.216C33.3459 4.816 34.1779 4.616 35.0419 4.616C35.5379 4.616 36.0499 4.688 36.5779 4.832C37.1059 4.96 37.5859 5.168 38.0179 5.456C38.1939 4.992 38.4259 4.568 38.7139 4.184C39.0019 3.8 39.3379 3.496 39.7219 3.272C40.1219 3.048 40.5379 2.936 40.9699 2.936C41.4339 2.936 41.7859 3.056 42.0259 3.296C42.2659 3.536 42.3859 3.856 42.3859 4.256C42.3859 4.384 42.3459 4.544 42.2659 4.736C42.2019 4.912 42.0819 5.064 41.9059 5.192C41.7299 5.32 41.4899 5.384 41.1859 5.384C40.9299 5.384 40.6979 5.304 40.4899 5.144C40.2979 4.968 40.1779 4.76 40.1299 4.52C39.7939 4.584 39.5139 4.784 39.2899 5.12C39.0819 5.44 38.9459 5.768 38.8819 6.104C39.2979 6.472 39.6179 6.912 39.8419 7.424C40.0819 7.92 40.2019 8.456 40.2019 9.032C40.2019 9.944 39.9539 10.752 39.4579 11.456C38.9779 12.16 38.3459 12.712 37.5619 13.112C36.7779 13.512 35.9299 13.712 35.0179 13.712C34.7459 13.712 34.4899 13.696 34.2499 13.664C34.0099 13.616 33.7459 13.592 33.4579 13.592C32.9459 13.592 32.5219 13.712 32.1859 13.952C31.8659 14.192 31.7459 14.48 31.8259 14.816C31.9059 15.168 32.2419 15.4 32.8339 15.512C33.4259 15.624 34.2819 15.704 35.4019 15.752C36.6339 15.8 37.6899 15.952 38.5699 16.208C39.4659 16.448 40.1539 16.824 40.6339 17.336C41.1299 17.848 41.3779 18.544 41.3779 19.424C41.3779 20.08 41.1939 20.664 40.8259 21.176C40.4739 21.688 39.9939 22.112 39.3859 22.448C38.7939 22.8 38.1299 23.064 37.3939 23.24C36.6579 23.416 35.9219 23.504 35.1859 23.504ZM35.4019 22.328C36.6979 22.328 37.6979 22.088 38.4019 21.608C39.1219 21.128 39.4819 20.584 39.4819 19.976C39.4819 19.464 39.3059 19.064 38.9539 18.776C38.6019 18.504 38.1059 18.304 37.4659 18.176C36.8419 18.064 36.1059 18 35.2579 17.984C34.8419 17.952 34.4179 17.928 33.9859 17.912C33.5539 17.896 33.1539 17.856 32.7859 17.792C32.4179 18.048 32.1299 18.36 31.9219 18.728C31.7299 19.096 31.6259 19.48 31.6099 19.88C31.6099 20.616 31.9539 21.208 32.6419 21.656C33.3299 22.104 34.2499 22.328 35.4019 22.328ZM35.0899 12.584C35.6339 12.584 36.0819 12.448 36.4339 12.176C36.8019 11.888 37.0739 11.512 37.2499 11.048C37.4419 10.568 37.5379 10.048 37.5379 9.488C37.5379 8.832 37.4419 8.216 37.2499 7.64C37.0579 7.064 36.7779 6.6 36.4099 6.248C36.0419 5.896 35.5699 5.72 34.9939 5.72C34.2099 5.72 33.6019 6.032 33.1699 6.656C32.7379 7.28 32.5219 8.032 32.5219 8.912C32.5219 9.616 32.6179 10.248 32.8099 10.808C33.0179 11.352 33.3139 11.784 33.6979 12.104C34.0819 12.424 34.5459 12.584 35.0899 12.584ZM49.9401 17C49.9081 16.744 49.8841 16.52 49.8681 16.328C49.8521 16.136 49.8281 15.936 49.7961 15.728C49.2521 16.272 48.6681 16.688 48.0441 16.976C47.4201 17.248 46.7721 17.384 46.1001 17.384C44.9481 17.384 44.0761 17.104 43.4841 16.544C42.9081 15.968 42.6201 15.256 42.6201 14.408C42.6201 13.672 42.8361 13.032 43.2681 12.488C43.7001 11.944 44.2681 11.504 44.9721 11.168C45.6761 10.816 46.4441 10.56 47.2761 10.4C48.1081 10.224 48.9241 10.136 49.7241 10.136V8.72C49.7241 8.208 49.6761 7.736 49.5801 7.304C49.4841 6.856 49.2841 6.496 48.9801 6.224C48.6921 5.936 48.2361 5.792 47.6121 5.792C47.1961 5.776 46.7801 5.856 46.3641 6.032C45.9481 6.192 45.6281 6.464 45.4041 6.848C45.5321 6.976 45.6121 7.128 45.6441 7.304C45.6921 7.464 45.7161 7.616 45.7161 7.76C45.7161 7.984 45.6201 8.24 45.4281 8.528C45.2361 8.8 44.9081 8.928 44.4441 8.912C44.0601 8.912 43.7641 8.784 43.5561 8.528C43.3641 8.256 43.2681 7.944 43.2681 7.592C43.2681 7.016 43.4761 6.504 43.8921 6.056C44.3241 5.608 44.9081 5.256 45.6441 5C46.3801 4.744 47.2041 4.616 48.1161 4.616C49.4921 4.616 50.5161 4.976 51.1881 5.696C51.8761 6.416 52.2201 7.552 52.2201 9.104C52.2201 9.68 52.2201 10.232 52.2201 10.76C52.2201 11.288 52.2121 11.816 52.1961 12.344C52.1961 12.872 52.1961 13.432 52.1961 14.024C52.1961 14.264 52.1881 14.536 52.1721 14.84C52.1561 15.144 52.1321 15.464 52.1001 15.8C52.3721 15.784 52.6521 15.768 52.9401 15.752C53.2281 15.736 53.5001 15.728 53.7561 15.728V17H49.9401ZM49.7241 11.24C49.2121 11.272 48.6841 11.344 48.1401 11.456C47.6121 11.568 47.1321 11.736 46.7001 11.96C46.2681 12.184 45.9161 12.472 45.6441 12.824C45.3881 13.176 45.2601 13.6 45.2601 14.096C45.2921 14.64 45.4681 15.04 45.7881 15.296C46.1241 15.552 46.5161 15.68 46.9641 15.68C47.5241 15.68 48.0201 15.576 48.4521 15.368C48.8841 15.144 49.3081 14.84 49.7241 14.456C49.7081 14.28 49.7001 14.104 49.7001 13.928C49.7001 13.736 49.7001 13.536 49.7001 13.328C49.7001 13.184 49.7001 12.92 49.7001 12.536C49.7161 12.136 49.7241 11.704 49.7241 11.24Z" fill="#9352FF"/>
</svg>
